<?xml version="1.0" standalone="no"?>
<!DOCTYPE svg PUBLIC "-//W3C//DTD SVG 20010904//EN"
 "http://www.w3.org/TR/2001/REC-SVG-20010904/DTD/svg10.dtd">
<svg version="1.0" xmlns="http://www.w3.org/2000/svg"
 width="7501.000000pt" height="5492.000000pt" viewBox="0 0 7501.000000 5492.000000"
 preserveAspectRatio="xMidYMid meet">

<g transform="translate(0.000000,5492.000000) scale(0.100000,-0.100000)"
fill="#000000" stroke="none">
<path d="M33705 47539 c-663 -67 -1247 -287 -1780 -670 -388 -278 -774 -706
-1042 -1154 -439 -734 -589 -1507 -452 -2330 91 -546 330 -1138 646 -1604 340
-499 755 -860 1298 -1126 358 -176 712 -286 1140 -355 72 -12 143 -29 160 -39
52 -30 51 -51 -4 -326 -116 -576 -159 -1079 -148 -1730 3 -192 11 -408 17
-480 63 -756 188 -1359 426 -2054 94 -275 94 -260 -9 -479 -74 -156 -118 -267
-156 -392 -61 -202 -110 -457 -131 -685 -15 -157 -37 -223 -94 -279 -28 -27
-177 -117 -442 -265 -520 -292 -1658 -936 -2488 -1409 -363 -206 -674 -380
-693 -385 -66 -20 -97 -1 -279 179 -1086 1071 -2280 1720 -3715 2023 -103 22
-206 49 -230 61 -24 13 -85 62 -135 110 -350 333 -708 499 -1229 567 -167 21
-634 24 -775 5 -624 -88 -1095 -356 -1484 -845 -42 -54 -94 -108 -114 -122
-20 -13 -102 -48 -182 -78 -646 -242 -1299 -596 -1838 -999 -806 -602 -1521
-1412 -2029 -2296 -580 -1010 -897 -2126 -963 -3384 -10 -204 -20 -245 -66
-275 -27 -17 -186 -18 -4359 -23 -4307 -5 -4330 -5 -4364 -25 -19 -11 -43 -38
-55 -60 l-21 -40 0 -3115 c0 -1715 -4 -3136 -9 -3161 -7 -41 -6 -49 13 -68 22
-22 56 -27 79 -13 10 7 13 600 12 3153 0 2308 3 3154 11 3177 7 19 24 39 41
48 28 14 443 16 4292 14 2826 0 4276 -4 4306 -11 108 -24 113 -37 121 -299 7
-227 34 -475 90 -805 216 -1292 733 -2454 1537 -3455 145 -182 277 -333 470
-540 128 -136 145 -167 192 -338 204 -753 508 -1180 1015 -1427 413 -201 862
-241 1515 -134 189 31 250 28 410 -21 504 -154 1032 -256 1580 -306 239 -21
835 -30 1075 -15 1053 65 1975 315 2900 786 718 366 1308 786 1854 1320 733
718 1300 1580 1717 2610 79 196 101 228 160 227 28 -1 226 -72 620 -222 318
-122 923 -352 1344 -512 1992 -755 2768 -1050 5365 -2038 1535 -583 3006
-1143 3269 -1243 514 -195 533 -205 554 -279 8 -28 4 -92 -13 -260 -89 -838
-78 -1702 31 -2508 45 -332 43 -364 -25 -404 -34 -20 -50 -20 -3249 -17 -3043
3 -3215 2 -3233 -15 -22 -20 -24 -43 -6 -67 11 -17 196 -18 3242 -17 l3230 0
45 -22 c66 -34 83 -74 130 -302 168 -818 388 -1516 708 -2236 584 -1317 1330
-2428 2267 -3379 882 -895 1866 -1595 3050 -2172 2585 -1259 5246 -1490 8010
-694 442 127 999 323 1400 493 225 95 659 311 870 433 l160 92 340 3 c328 2
510 12 885 50 727 73 1314 297 1830 697 134 105 411 380 524 522 104 130 269
377 351 524 307 552 569 1387 659 2101 37 290 66 767 66 1080 l0 145 70 165
c886 2073 1124 4285 704 6545 -156 841 -411 1667 -760 2455 -95 215 -350 719
-474 935 -521 911 -1156 1728 -1941 2500 -836 822 -1743 1472 -2764 1983 -815
407 -1647 700 -2573 907 -111 24 -220 54 -242 65 -69 35 -108 78 -214 239
-148 222 -295 401 -485 592 -326 325 -672 566 -1126 785 -557 267 -1179 434
-1865 499 -346 32 -808 45 -869 24 -20 -7 -33 -20 -37 -36 -12 -47 48 -210
198 -533 55 -118 111 -239 123 -267 l24 -52 -107 6 c-407 23 -733 -140 -881
-441 -57 -115 -81 -224 -81 -369 0 -144 17 -234 76 -390 46 -125 53 -171 30
-215 -22 -42 -72 -64 -316 -141 -640 -200 -1161 -411 -1745 -706 -1271 -642
-2373 -1506 -3352 -2627 -1364 -1560 -2246 -3428 -2582 -5468 -49 -295 -54
-306 -138 -298 -28 3 -203 65 -423 151 -791 306 -7459 2841 -9995 3799 -291
110 -552 211 -578 224 -58 30 -87 74 -87 133 0 25 20 119 44 210 111 413 191
826 241 1231 64 528 71 1145 19 1650 -145 1409 -711 2731 -1690 3952 -141 175
-146 200 -52 262 29 18 292 168 583 332 292 163 1054 594 1695 957 641 364
1184 668 1207 676 31 11 45 13 53 5 19 -19 30 -85 30 -190 0 -162 19 -446 40
-617 45 -354 113 -592 256 -881 74 -151 130 -214 241 -271 1 0 11 -41 21 -90
71 -324 237 -659 446 -897 348 -398 872 -621 1397 -594 544 28 1009 249 1449
688 77 77 237 253 285 316 1 1 49 -25 106 -59 246 -146 792 -382 1211 -522
667 -225 1301 -351 2048 -409 210 -16 913 -16 1120 0 1187 93 2150 351 3120
837 1372 687 2503 1712 3227 2925 1012 1694 1447 3466 1272 5179 -124 1216
-532 2391 -1251 3606 -142 239 -258 410 -482 710 l-193 260 3878 3 c2134 1
3879 5 3879 8 0 10 -29 31 -73 54 -37 20 -54 21 -3835 20 -2582 0 -3817 3
-3861 10 -93 16 -131 40 -233 148 -271 287 -598 590 -879 815 -1549 1232
-3329 1839 -5284 1804 -337 -6 -486 -15 -780 -47 -1070 -118 -2118 -461 -3062
-1003 -180 -104 -208 -117 -246 -119 -67 -2 -92 25 -190 213 -357 686 -896
1224 -1567 1564 -384 194 -751 308 -1200 371 -136 19 -655 28 -795 13z m675
-100 c681 -63 1339 -330 1885 -765 141 -113 426 -398 539 -539 288 -362 517
-800 641 -1225 107 -369 153 -729 142 -1110 -15 -521 -127 -977 -357 -1445
-179 -364 -369 -637 -645 -924 -602 -624 -1366 -995 -2208 -1072 -166 -15
-571 -7 -737 16 -672 89 -1267 337 -1795 747 -148 116 -407 366 -534 518 -443
528 -715 1158 -797 1850 -22 176 -24 581 -6 745 63 551 222 1031 496 1493 283
476 729 925 1209 1216 509 308 1053 473 1682 510 87 5 363 -3 485 -15z m7845
-999 c1309 -84 2521 -467 3680 -1163 564 -338 1019 -699 1535 -1216 l285 -286
-978 -3 c-750 -2 -978 -5 -975 -14 2 -6 21 -26 42 -42 l38 -31 946 -5 c1062
-6 978 1 1068 -82 84 -77 354 -424 536 -689 579 -841 986 -1769 1207 -2745
202 -897 254 -1929 140 -2834 -138 -1107 -497 -2135 -1092 -3130 -127 -212
-283 -447 -305 -459 -12 -6 -35 -11 -53 -11 -25 0 -30 3 -26 18 3 9 26 75 52
146 58 165 98 302 191 661 42 160 122 453 179 651 122 425 255 949 284 1120
75 449 43 908 -94 1344 -99 312 -280 648 -496 922 -102 128 -311 337 -446 445
-450 360 -988 572 -1578 623 -71 6 -494 10 -1028 10 -969 0 -953 -1 -972 47
-3 10 -20 198 -36 418 -16 220 -49 673 -74 1007 -25 334 -45 641 -45 681 0 92
10 124 71 214 311 462 483 937 530 1463 15 168 6 527 -16 665 -101 638 -412
1088 -930 1345 -233 115 -423 168 -771 215 -317 42 -440 82 -620 202 -125 83
-164 104 -286 157 -214 91 -488 159 -709 176 -450 34 -821 -116 -1131 -457
-276 -305 -368 -643 -287 -1062 38 -194 155 -507 240 -636 62 -96 98 -176 105
-235 4 -37 -2 -116 -20 -240 -102 -736 -98 -1337 15 -1905 124 -625 298 -942
619 -1130 119 -70 170 -85 321 -100 269 -25 286 -56 291 -537 l3 -288 -915 2
c-927 2 -1135 -3 -1450 -37 -1212 -132 -2204 -710 -2963 -1727 -285 -382 -462
-736 -659 -1318 l-53 -155 -91 -7 c-195 -15 -372 -65 -559 -158 -260 -130
-499 -340 -732 -647 -41 -54 -77 -98 -80 -98 -15 0 -142 354 -202 563 -152
528 -252 1083 -301 1672 -6 69 -14 267 -17 440 -6 343 5 628 38 955 42 422
136 960 178 1029 38 61 64 68 266 78 332 14 602 52 858 117 535 139 1024 388
1440 736 792 663 1261 1649 1294 2720 12 389 -37 733 -163 1143 -64 210 -65
231 -6 293 64 67 572 338 927 494 888 391 1794 611 2775 674 185 12 822 13
1005 1z m-1617 -2807 c61 -71 148 -175 194 -233 98 -123 133 -150 195 -150 45
0 88 19 193 86 79 50 178 78 250 71 201 -18 360 -216 360 -447 -1 -165 -86
-362 -232 -534 -77 -91 -102 -139 -95 -183 8 -49 53 -105 127 -158 336 -241
493 -341 687 -438 219 -110 487 -206 679 -243 108 -21 332 -24 419 -6 207 45
413 151 638 331 43 35 81 60 84 57 6 -5 152 -1996 153 -2073 l0 -43 -1260 0
c-1000 0 -1261 3 -1265 13 -3 12 -76 1699 -75 1765 0 41 -13 41 -57 -3 l-34
-34 6 -118 c32 -657 31 -669 -22 -722 l-34 -34 -78 6 c-163 11 -371 105 -506
230 -194 178 -319 430 -415 832 -109 454 -144 1109 -90 1665 11 110 62 490 66
490 1 0 52 -57 112 -127z m-5082 -7364 c-7 -63 -17 -94 -85 -289 -23 -63 -41
-127 -41 -142 0 -35 -18 -44 -110 -52 -196 -18 -394 -77 -507 -152 -37 -25
-59 -43 -48 -40 43 10 86 17 235 36 193 26 290 50 394 99 67 32 100 41 196 52
151 18 673 19 835 1 309 -34 755 -113 880 -155 191 -65 360 -185 411 -292 19
-40 24 -67 24 -131 0 -141 -54 -211 -221 -287 l-73 -33 95 -54 c202 -115 281
-186 341 -308 30 -61 33 -74 33 -162 0 -83 -4 -103 -28 -155 -33 -70 -67 -109
-122 -138 -70 -37 -192 -34 -994 27 -404 31 -744 56 -755 56 -30 0 53 -54 122
-80 80 -30 124 -38 308 -55 364 -34 520 -80 642 -190 121 -109 172 -319 108
-444 -25 -47 -95 -100 -156 -118 -84 -24 -266 -11 -1074 78 -268 29 -335 31
-320 8 21 -34 145 -95 346 -169 123 -45 264 -102 313 -125 290 -139 427 -370
357 -602 -54 -177 -182 -246 -387 -209 -289 52 -358 59 -580 60 -165 1 -249
-4 -335 -17 -375 -59 -720 -195 -1037 -408 -40 -27 -79 -49 -87 -49 -27 0
-152 147 -194 227 -91 175 -214 681 -268 1098 -23 174 -26 709 -6 875 59 477
189 887 415 1305 256 473 577 779 962 915 109 39 291 78 364 79 l54 1 -7 -61z
m-9446 -2429 c1704 -439 3045 -1263 4016 -2465 491 -608 888 -1319 1193 -2136
511 -1371 622 -2746 326 -4062 -204 -912 -605 -1819 -1190 -2692 -126 -188
-316 -455 -325 -455 -3 0 -45 116 -94 258 -824 2397 -1310 3689 -1823 4852
-372 841 -627 1162 -1148 1442 -403 217 -777 328 -1104 328 -32 0 -114 15
-191 35 -139 37 -508 157 -593 194 -44 19 -48 23 -43 48 3 16 24 181 46 368
73 610 64 554 97 587 19 19 67 43 137 68 521 189 857 620 942 1210 22 156 15
474 -15 643 -41 232 -81 364 -199 657 -111 276 -143 432 -123 598 22 177 8
250 -84 453 -44 97 -51 119 -37 119 9 0 105 -23 212 -50z m-4170 -243 c0 -2
-11 -37 -25 -78 -84 -242 -208 -680 -280 -989 -215 -913 -350 -1919 -509
-3802 -40 -468 -46 -521 -68 -567 -17 -38 -72 -101 -213 -244 -264 -266 -438
-479 -627 -764 -515 -778 -867 -1752 -1188 -3293 -53 -255 -254 -1319 -317
-1678 -3 -18 -9 -34 -13 -37 -3 -2 -34 28 -67 68 -147 176 -282 368 -435 617
-627 1022 -981 2110 -1088 3340 -20 221 -18 350 3 384 38 58 18 57 851 56 778
-1 816 0 816 36 0 7 -12 22 -27 34 -26 20 -29 21 -799 20 -855 -1 -816 -4
-850 63 -15 27 -16 53 -11 187 25 599 153 1335 337 1930 130 423 257 737 462
1143 438 865 1050 1631 1848 2312 499 426 1039 771 1620 1036 258 117 580 243
580 226z m3868 -461 c57 -53 202 -330 292 -557 210 -527 237 -1136 66 -1530
-217 -499 -704 -829 -1225 -829 -275 0 -486 70 -751 247 -229 154 -382 293
-506 460 -103 138 -160 157 -334 109 -173 -47 -346 -51 -480 -11 -258 78 -460
335 -460 586 0 165 97 326 259 433 102 67 149 81 266 80 206 -1 303 -73 596
-444 55 -69 114 -142 132 -162 68 -76 121 -40 210 144 94 192 146 380 166 600
14 147 -12 414 -55 562 -8 27 -14 67 -14 88 0 59 21 64 183 49 604 -57 998
-14 1390 150 181 76 208 79 265 25z m-2283 -2192 c18 -8 53 -39 76 -67 81 -96
263 -279 354 -355 321 -269 630 -390 1013 -396 105 -2 166 -6 174 -14 8 -8 -2
-123 -42 -459 -30 -246 -54 -461 -53 -476 0 -15 9 -38 21 -50 l20 -22 -67
-595 -67 -595 -28 2 c-33 2 -97 34 -146 73 -33 26 -270 180 -1311 850 l-427
275 -3 105 c-3 80 0 116 12 150 34 93 71 290 105 563 19 155 48 359 64 452 16
94 36 233 45 310 18 163 20 172 49 204 49 55 147 76 211 45z m32602 -1579
c513 -95 965 -235 1643 -510 445 -180 1038 -462 1420 -676 1825 -1019 3203
-2387 4189 -4159 117 -210 357 -695 454 -915 282 -643 519 -1332 701 -2035
153 -591 243 -1166 288 -1830 16 -238 16 -998 0 -1245 -76 -1159 -262 -2106
-609 -3100 -95 -272 -259 -685 -272 -685 -12 0 -59 166 -76 265 -8 50 -24 178
-35 285 -30 277 -105 660 -221 1121 -303 1213 -789 2425 -1427 3564 -435 777
-906 1416 -1383 1880 -735 714 -1669 1151 -2919 1364 -388 66 -822 121 -1472
186 -320 32 -360 34 -391 22 -25 -11 -52 -41 -102 -113 -354 -514 -848 -793
-1570 -889 -66 -9 -154 -25 -196 -35 -134 -35 -329 -22 -329 22 0 25 26 48
135 117 235 150 370 344 415 597 12 68 11 183 -6 438 -4 57 -1 166 7 255 18
224 15 398 -10 493 -35 134 -95 227 -195 301 -69 51 -86 73 -86 112 0 60 -30
205 -56 270 -79 197 -229 336 -505 469 l-128 62 339 364 c246 265 345 366 363
368 17 2 41 -9 73 -33 66 -50 189 -111 273 -134 141 -39 229 -37 441 10 31 7
68 9 84 5 39 -10 73 -47 85 -92 6 -22 38 -259 71 -528 113 -909 241 -1869 251
-1888 28 -52 193 -130 306 -144 59 -7 103 12 103 45 0 32 -30 45 -114 52 -129
10 -186 49 -222 151 -8 23 -33 196 -55 383 -53 457 -128 1052 -195 1550 -31
226 -56 437 -56 470 -2 76 24 129 87 180 55 45 127 139 166 217 51 100 62 173
55 343 l-7 151 28 25 c15 15 62 49 104 77 345 230 560 526 660 910 44 171 61
319 61 547 0 456 -63 752 -257 1210 -65 154 -66 155 -55 155 5 0 71 -11 147
-25z m-5239 -175 c18 -11 53 -53 79 -92 188 -296 311 -454 499 -643 69 -69
129 -137 134 -151 17 -44 11 -87 -26 -169 -220 -492 -307 -848 -307 -1250 0
-259 30 -448 110 -696 42 -132 40 -138 -64 -195 -234 -128 -387 -239 -557
-404 -151 -146 -271 -293 -401 -490 -180 -274 -251 -412 -525 -1030 -301 -677
-357 -799 -408 -880 -52 -83 -139 -195 -245 -313 -75 -83 -77 -97 -14 -97 60
0 94 28 195 164 175 232 293 448 452 826 256 608 347 807 469 1025 85 151 213
348 299 456 188 237 519 535 692 621 74 38 93 43 152 43 60 0 70 -3 98 -30 18
-16 48 -61 67 -99 53 -106 78 -138 130 -171 27 -16 84 -56 127 -89 l79 -60
-32 -26 c-63 -53 -404 -216 -492 -235 -82 -18 -107 -52 -79 -106 14 -25 32
-24 94 6 28 13 105 45 171 71 154 59 298 134 459 241 158 104 252 174 611 458
564 447 858 645 1074 726 79 30 96 33 206 33 143 1 184 -13 270 -95 76 -72
105 -134 105 -223 -1 -120 -30 -176 -209 -398 -185 -233 -359 -426 -613 -685
-149 -150 -238 -249 -238 -261 0 -28 16 -38 119 -72 50 -16 150 -59 222 -96
226 -115 303 -214 373 -479 60 -226 100 -303 210 -401 95 -84 118 -136 124
-273 3 -63 -3 -172 -13 -271 -21 -190 -23 -369 -7 -454 7 -33 12 -102 12 -153
0 -228 -81 -423 -245 -589 -114 -115 -247 -192 -410 -238 -83 -24 -245 -50
-253 -41 -2 2 50 62 116 133 129 140 178 205 266 350 57 95 65 119 44 140 -30
30 -54 14 -107 -73 -28 -46 -78 -119 -110 -162 -76 -101 -266 -284 -361 -348
-41 -27 -79 -54 -83 -60 -4 -5 -5 -33 -2 -61 l6 -51 -116 -117 c-63 -65 -202
-222 -308 -349 -283 -340 -699 -790 -1109 -1200 -142 -142 -258 -266 -258
-276 0 -10 -13 -22 -32 -29 -50 -18 -150 -98 -293 -233 -214 -201 -249 -226
-385 -270 -268 -88 -421 -77 -586 40 -38 27 -90 71 -116 97 -130 137 -381 487
-513 718 -262 459 -417 915 -482 1421 -13 106 -17 210 -18 430 0 368 7 412 96
622 21 51 39 95 39 99 0 11 -86 -6 -158 -31 -91 -31 -488 -217 -789 -369
-1439 -726 -2609 -1649 -3510 -2768 -596 -739 -938 -1446 -1068 -2210 -19
-113 -28 -215 -35 -388 -5 -129 -9 -236 -10 -237 -1 -9 -531 -1 -562 7 -55 16
-93 66 -111 147 -29 128 -80 609 -109 1023 -17 246 -17 1136 0 1375 87 1244
325 2293 766 3378 447 1101 1129 2218 1911 3132 305 357 743 802 1075 1094
1146 1006 2483 1753 4040 2257 252 81 317 91 378 54z m1476 -434 c736 -491
1317 -758 1956 -901 197 -44 204 -50 243 -211 49 -203 59 -299 54 -514 -4
-135 -11 -222 -25 -283 -28 -134 2 -168 96 -108 105 67 160 86 252 86 76 0 91
-3 139 -30 66 -36 167 -144 208 -222 102 -191 107 -383 15 -566 -43 -86 -174
-223 -264 -276 -133 -78 -320 -118 -472 -101 -155 18 -348 98 -372 156 -37 89
79 254 214 304 106 40 397 162 410 172 15 13 16 50 0 66 -18 18 -49 15 -83 -9
-48 -32 -176 -96 -222 -109 -36 -11 -46 -11 -67 4 -38 24 -47 49 -57 154 -11
119 -40 183 -110 246 -93 83 -194 118 -344 117 -151 0 -315 -55 -502 -167
-210 -125 -773 -543 -1180 -877 -236 -192 -278 -194 -453 -11 -251 263 -386
578 -431 1002 -15 144 -7 456 15 577 40 222 115 467 216 705 102 241 418 843
477 906 42 46 69 36 287 -110z m-26228 44 c665 -102 1190 -396 1535 -860 115
-155 152 -216 257 -426 405 -809 903 -2066 1585 -4004 69 -195 130 -368 136
-384 l11 -28 -60 4 c-91 7 -109 23 -165 152 -69 161 -204 243 -456 280 -120
18 -353 21 -444 6 -33 -5 -129 -15 -213 -21 -537 -37 -1059 116 -1532 450 -52
37 -102 70 -110 73 -28 10 -60 -10 -60 -36 0 -31 51 -73 225 -189 308 -204
675 -337 1037 -376 136 -15 436 -13 608 4 283 28 474 16 631 -41 86 -31 111
-45 162 -93 43 -40 71 -89 81 -141 15 -76 25 -88 109 -132 161 -86 211 -160
182 -273 -16 -58 -72 -175 -85 -175 -3 0 -17 19 -30 43 -38 67 -130 151 -212
191 -110 55 -221 73 -513 86 -281 11 -455 29 -660 66 -159 28 -364 80 -475
119 -101 36 -258 117 -331 171 l-59 44 0 -35 c0 -51 23 -99 61 -128 70 -53
378 -173 564 -221 239 -60 470 -89 852 -106 426 -19 496 -40 660 -195 50 -46
93 -93 95 -103 9 -32 -15 -61 -101 -122 -133 -96 -273 -139 -573 -177 -188
-24 -719 -24 -989 0 -218 20 -295 14 -378 -26 -25 -13 -244 -138 -486 -278
-242 -140 -534 -309 -648 -374 -208 -119 -237 -142 -237 -192 0 -14 -132 -86
-536 -297 -294 -153 -537 -277 -539 -275 -9 10 -98 166 -152 269 -191 360
-374 835 -521 1355 -131 463 -202 782 -202 912 0 49 1 52 33 62 46 14 1030
272 1230 322 167 41 210 61 220 98 3 11 -20 91 -49 177 -155 451 -134 742 61
847 34 19 56 22 156 22 113 0 116 -1 192 -38 133 -66 215 -156 449 -494 82
-118 108 -149 113 -135 24 56 24 93 0 262 -14 96 -54 384 -90 640 -35 256
-164 1187 -285 2070 -121 883 -222 1620 -225 1638 -7 39 -11 39 171 12z
m-3586 -285 c166 -178 277 -349 430 -660 300 -612 562 -1520 644 -2234 55
-474 44 -767 -69 -1926 -44 -444 -45 -450 -70 -472 -14 -12 -42 -25 -63 -28
-20 -3 -84 -19 -142 -35 -58 -16 -199 -54 -315 -84 -115 -30 -250 -66 -299
-80 -104 -31 -136 -32 -166 -8 -34 27 -38 82 -29 355 16 459 48 1630 68 2477
11 459 25 881 30 938 13 128 6 152 -44 152 -26 0 -39 -6 -51 -25 -14 -22 -15
-35 -6 -98 6 -40 9 -111 6 -158 -2 -46 -13 -424 -24 -839 -31 -1173 -48 -1771
-66 -2324 -17 -549 -16 -571 32 -602 32 -22 76 -15 252 35 75 22 376 105 667
185 292 80 546 150 565 156 62 18 124 13 148 -12 30 -33 37 -57 77 -253 132
-656 334 -1256 651 -1930 102 -216 107 -230 93 -254 -18 -33 -139 -94 -519
-263 -858 -381 -1541 -619 -2195 -763 -226 -49 -519 -100 -674 -115 -152 -15
-442 -12 -574 5 -701 92 -1176 508 -1431 1254 -215 628 -274 1356 -196 2413
25 343 26 380 1 402 -18 16 -19 11 -45 -151 -62 -392 -81 -690 -73 -1168 5
-312 22 -627 43 -787 3 -29 2 -48 -4 -48 -17 0 -151 131 -229 224 -42 50 -103
119 -135 153 -32 34 -58 66 -58 72 0 17 173 979 231 1281 205 1076 426 1933
652 2530 317 835 738 1509 1293 2065 444 446 818 674 1314 803 l105 27 27 -40
c15 -22 82 -98 148 -170z m7097 -5452 c-3 -3 -11 -2 -17 2 -9 6 -9 10 1 16 14
8 27 -7 16 -18z m262 -698 c93 -275 131 -402 127 -419 -9 -35 -166 -208 -415
-456 -559 -557 -1107 -962 -1746 -1291 -183 -94 -241 -115 -249 -86 -2 6 -9
55 -16 107 -16 121 -73 346 -145 570 -31 96 -83 267 -116 380 -33 113 -94 309
-136 437 l-77 232 19 22 c51 56 213 181 278 213 131 65 186 71 452 55 315 -19
806 -17 1000 4 292 33 459 92 607 217 102 84 201 224 251 353 12 31 24 57 27
57 3 0 66 -178 139 -395z m-6779 -2462 c0 -9 -5 -67 -11 -128 -8 -79 -9 -129
-1 -171 9 -55 9 -61 -14 -91 -16 -21 -34 -33 -48 -33 -74 0 -657 147 -766 193
l-35 15 28 7 c15 4 204 56 420 115 216 60 400 109 410 109 10 1 17 -6 17 -16z
m29263 -2672 c233 -54 461 -149 794 -333 540 -297 2769 -1499 3662 -1974 206
-110 393 -216 417 -237 56 -49 79 -108 72 -185 -9 -94 -139 -496 -276 -847
-167 -429 -484 -1137 -786 -1750 -252 -513 -422 -812 -690 -1217 -177 -268
-211 -298 -299 -264 -41 16 -564 385 -957 675 -769 568 -1663 1283 -2790 2230
-454 382 -521 441 -596 529 -227 266 -275 559 -128 781 22 33 39 72 42 96 4
35 -1 47 -32 85 -173 215 -214 310 -203 476 11 191 139 340 342 400 43 13 96
18 186 18 l126 1 -75 80 c-221 236 -299 416 -259 607 33 162 129 299 249 354
60 28 69 29 193 28 101 -1 153 -7 233 -26 93 -22 104 -23 111 -9 5 9 11 72 13
141 8 211 60 301 202 352 70 25 319 19 449 -11z m-8907 -627 l51 -14 6 -122
c29 -582 319 -1191 807 -1692 468 -481 1051 -765 1815 -885 276 -43 411 -53
779 -57 392 -4 388 -3 399 -62 3 -15 -10 -184 -28 -377 -39 -400 -167 -1800
-187 -2040 -20 -244 -17 -880 5 -1075 32 -281 99 -638 121 -645 6 -2 24 -6 40
-10 l29 -6 -22 -22 -22 -22 -22 25 c-12 14 -67 56 -122 94 -559 389 -1109 894
-1680 1546 -1277 1458 -2120 3140 -2529 5042 -51 237 -48 306 16 332 43 19
470 11 544 -10z"/>
<path d="M32417 45542 c-10 -10 -17 -29 -17 -41 0 -17 191 -214 741 -763 407
-408 749 -755 760 -772 24 -39 24 -82 2 -123 -10 -17 -350 -366 -756 -774
-688 -692 -738 -744 -735 -773 3 -26 8 -32 33 -34 27 -3 87 54 770 738 407
408 751 748 765 756 32 17 98 18 130 1 14 -7 356 -345 760 -751 404 -406 743
-742 753 -748 25 -13 67 15 67 45 0 16 -172 195 -618 643 -339 341 -672 669
-740 730 -68 60 -132 123 -143 140 -24 39 -25 99 -1 142 9 18 354 370 765 781
730 729 748 748 737 773 -7 14 -23 31 -37 37 -23 11 -28 8 -57 -24 -17 -20
-148 -151 -291 -292 -143 -141 -464 -461 -713 -711 -250 -249 -468 -462 -485
-473 -47 -28 -97 -25 -143 10 -21 16 -369 360 -773 765 -404 405 -740 736
-746 736 -7 0 -19 -8 -28 -18z"/>
<path d="M41349 43035 c-106 -39 -167 -91 -215 -186 -57 -113 -63 -158 -24
-179 31 -17 49 -1 84 75 65 140 157 207 286 209 36 0 83 -3 105 -8 l40 -8 -35
37 c-68 71 -153 93 -241 60z"/>
<path d="M35966 35054 c-20 -19 -20 -38 -2 -53 8 -7 134 -22 303 -37 338 -29
502 -47 671 -74 167 -27 190 -27 198 5 8 33 -1 53 -28 64 -56 22 -533 82 -806
101 -225 15 -317 13 -336 -6z"/>
<path d="M22913 31530 c-24 -5 -51 -13 -60 -19 -20 -11 -14 -13 97 -31 192
-32 340 -88 433 -164 59 -48 81 -52 107 -21 17 20 -9 73 -56 114 -45 40 -136
84 -219 106 -72 19 -244 28 -302 15z"/>
<path d="M27866 23188 c3 -4 27 -19 54 -33 263 -133 1020 -165 1313 -55 31 12
55 26 51 31 -3 6 -212 8 -542 7 -560 -3 -634 1 -824 46 -32 7 -55 9 -52 4z"/>
<path d="M51820 16575 c0 -6 384 -260 713 -472 305 -196 718 -442 894 -532 56
-28 48 -8 -20 51 -339 291 -1331 897 -1559 952 -16 3 -28 4 -28 1z"/>
<path d="M51581 15434 c460 -367 788 -593 1182 -818 26 -15 47 -25 47 -23 0 6
-419 334 -598 469 -261 196 -488 346 -701 462 -57 31 -106 56 -109 56 -3 0 78
-66 179 -146z"/>
<path d="M50890 14676 c39 -36 443 -353 585 -459 248 -185 676 -460 691 -444
9 9 -84 102 -194 195 -301 252 -800 596 -1006 693 -68 32 -101 39 -76 15z"/>
<path d="M16835 43540 c-793 -7 -825 -9 -1135 -86 -734 -182 -1373 -646 -1770
-1285 -257 -414 -392 -841 -420 -1333 -41 -722 185 -1438 629 -1995 429 -537
1059 -913 1716 -1025 196 -34 288 -39 810 -45 497 -7 544 -9 585 -26 28 -12
106 -75 210 -169 229 -207 2065 -1859 2513 -2261 202 -182 373 -330 379 -330
7 0 21 15 32 34 20 34 20 51 21 1335 0 1283 0 1301 20 1335 11 19 38 43 60 55
l40 21 1810 1 c1925 2 1919 1 2170 51 460 91 913 300 1275 589 110 88 347 325
434 434 89 112 200 279 275 414 346 625 440 1372 264 2111 -89 377 -299 802
-549 1115 -96 119 -300 322 -421 418 -412 326 -881 529 -1418 613 -131 20
-189 22 -905 29 -882 9 -5572 9 -6625 0z m7386 -101 c343 -35 623 -116 944
-274 452 -222 848 -573 1127 -1000 141 -215 278 -510 347 -745 76 -264 105
-478 105 -765 -1 -321 -40 -563 -139 -860 -192 -576 -535 -1049 -1015 -1402
-428 -314 -960 -505 -1475 -529 -72 -3 -935 -7 -1920 -7 -1942 -2 -1823 1
-1862 -56 -17 -24 -18 -106 -23 -1338 l-5 -1313 -980 882 c-539 484 -1185
1067 -1436 1294 -251 227 -480 429 -507 449 -28 20 -77 46 -109 58 -56 20 -78
22 -573 28 -550 7 -662 15 -907 65 -396 81 -803 273 -1136 536 -121 96 -335
309 -431 428 -528 660 -741 1558 -561 2365 90 406 286 813 551 1145 87 109
335 357 444 444 267 213 613 394 930 485 187 54 436 100 610 114 25 2 1816 4
3981 5 2717 1 3969 -1 4040 -9z"/>
<path d="M56935 39413 c-711 -58 -1347 -356 -1836 -859 -531 -548 -829 -1284
-829 -2049 0 -635 221 -1247 640 -1775 100 -126 342 -370 460 -464 395 -314
829 -509 1282 -577 211 -31 793 -40 2448 -37 1430 2 1486 2 1523 -16 25 -12
45 -33 59 -60 26 -50 24 78 20 -1461 l-3 -1210 22 -17 c30 -25 62 -22 90 8 13
15 260 238 549 498 801 718 1584 1424 1999 1799 205 186 397 354 426 373 30
18 89 46 132 60 l78 27 470 2 c509 2 645 11 891 61 476 96 970 357 1341 708
503 475 818 1118 894 1826 16 145 6 583 -16 720 -99 626 -376 1172 -816 1611
-435 432 -974 707 -1596 811 l-128 22 -4030 1 c-2216 1 -4048 0 -4070 -2z
m8095 -101 c371 -52 677 -147 979 -303 745 -385 1282 -1095 1446 -1914 44
-218 50 -289 50 -565 0 -283 -10 -376 -61 -610 -89 -403 -285 -808 -550 -1140
-99 -124 -322 -342 -454 -444 -336 -259 -753 -452 -1155 -535 -251 -51 -309
-55 -845 -56 l-505 -1 -70 -25 c-108 -39 -161 -79 -415 -309 -824 -749 -2570
-2314 -2643 -2370 -18 -13 -19 27 -16 1306 2 1016 0 1324 -10 1341 -6 13 -26
30 -44 40 -30 15 -166 17 -1912 17 -2064 1 -1956 -2 -2256 62 -403 85 -781
259 -1111 511 -129 98 -343 305 -450 435 -634 767 -811 1793 -472 2738 94 258
252 544 427 769 98 125 318 350 437 445 134 107 339 239 488 315 362 182 700
274 1132 304 25 2 1818 3 3985 2 2998 -1 3960 -4 4025 -13z"/>
</g>
</svg>
