<svg id="Layer_1" data-name="Layer 1" xmlns="http://www.w3.org/2000/svg" viewBox="0 0 1444.28335 964.80939"><defs><style>.cls-1{fill:#fff;}.cls-2{fill:#5479f3;}.cls-3{fill:#f98200;}.cls-4{fill:#111;}.cls-5{fill:#fefefe;}.cls-6{fill:#f9e100;}.cls-7{fill:#e0ebff;}</style></defs><path class="cls-1" d="M355.50838,255.02214l.42952-1.27191,4.64275-3.49217s6.09677-8.90322,9.19354-14.90322,4.06452-11.22581,5.80646-14.41936,4.25806-8.90322,5.129-10.35483,5.03226-9.29033,5.03226-9.29033l5.6129-8.2258,4.16129-4.54839,4.16129-3.67742,4.83871-4.06452,3.871-2.41935,2.90322-1.16129h2.22581s1.35484.48387,1.54839.871a9.442,9.442,0,0,0,.67742,1.54838,8.01828,8.01828,0,0,1,1.06451,1.93549c0,.29032-.09677.19355.48387,1.16129a18.76494,18.76494,0,0,0,1.35484,1.93548,4.41368,4.41368,0,0,0,1.16129,1.16129,20.771,20.771,0,0,1,2.129,1.45161c.29033.29033.3871-.1124.871.47606a2.13146,2.13146,0,0,0,1.25807.87878,2.01847,2.01847,0,0,0,1.83871.09678c.77419-.3871,1.35483-.98338,1.74193-.97556a6.02411,6.02411,0,0,0,1.45161-.47606,5.10941,5.10941,0,0,0,1.54839-.871,5.32932,5.32932,0,0,1,1.35484-.871,8.64933,8.64933,0,0,0,1.16129-.871l18.58065-21.96774s13.85628-2.50963,15.34749-2.8032,10.47976-.00468,11.83961,1.0217,17.16773,5.23311,17.16773,5.23311l3.35484,19.35484,8,60.25807,3.09678,3.09677,5.38709.74194s4.96137.76554,6.9,1.30212L501.3871,278.51613s-33.345,15.09677-39.70476,17.41935S441,304.45161,435.19355,312.19355s-15.56008,18.58064-23.45746,23.6129S393,347.41935,386.03226,348.96774s-17.03226,1.93549-19.35484,0-8.51613-15.48387-8.90323-18.58064-4.64516-15.48387-5.03225-17.03226-2.70968-12.77419-1.93549-15.48387-.15689-18.96774-.15689-18.96774l-2.55279-11.22581,1.54839-6.58065Z" transform="translate(643.52384 340.51615)"/><path class="cls-2" d="M712.37409,465.56951c.01123,15.82113-.80046,31.53467-4.85179,46.96071-4.21063,16.03191-9.76377,31.40156-20.08887,44.66055-14.56063,18.6978-34.08828,28.09552-57.30475,30.36778-9.75656.95494-19.55059,1.703-29.37514,1.02866-3.07866-3.25759-7.18871-1.66016-10.81065-2.17645-28.89044-4.11856-55.67991-13.63015-79.63544-30.56452-1.16529-.82386-2.23818-1.8845-3.8541-1.42986-.06115.51934-.24936.96776-.10985,1.12411a14.18085,14.18085,0,0,0,2.43346,2.42044,189.60883,189.60883,0,0,0,35.39552,19.073,177.33279,177.33279,0,0,0,44.27887,11.57381c1.03285.13145,2.58738-.187,2.6871,1.44132.066,1.07895-1.00026,1.66627-1.90044,2.10407-2.687,1.30658-5.40337,2.55238-8.099,3.8415a257.73165,257.73165,0,0,1-92.16809,24.66021,265.90662,265.90662,0,0,1-166.5393-42.55856c-3.35745-2.18584-7.95536-3.50231-9.33547-8.16535q-.89839-.12009-1.79669-.24032l.0448.07653c-4.16571-15.9909-3.787-32.19515-2.28748-48.4547,1.51144-16.38928,2.92279-32.78851,4.58546-49.16229.28891-2.84549-.43037-3.48273-3.08708-3.30953a98.10455,98.10455,0,0,1-10.47658.08183c-24.68825-1.03586-47.0021-7.82994-63.05-27.97376-8.8271-11.0798-14.66145-23.6825-14.73859-38.31056,16.25442-1.13528,32.5385-.15879,48.80489-.64939,3.73362-.11253,7.47457.4862,11.01851-1.07766-3.38612-1.59719-6.80923-1.35064-10.24027-1.356-16.80271-.02594-33.60541-.14268-50.40812-.22739.14525-3.81965.00415-7.67573.4831-11.45315,2.726-21.49562,12.60295-39.81609,25.94276-56.38332,26.22287-32.56742,59.56208-55.75628,97.37128-72.89722,3.19193-1.44707,6.30941-3.31887,10.24626-3.57189-1.2102,3.35842-2.85615,6.0758-3.16081,9.32437-2.34985,25.05407,5.81727,46.9142,20.99039,66.24325,7.45223,9.49317,12.08566,9.98754,23.05438,5.69231,2.01846-1.1025,2.46092.00977,1.89982,1.60555a27.17717,27.17717,0,0,1-2.37829,4.36144q-30.14941,52.17339-60.29162,104.35079c-.68072,1.179-2.46679,2.78079-.73247,3.76118,1.72175.97313,2.29566-1.477,2.94147-2.593,19.54131-33.76952,38.93457-67.62484,58.55193-101.34987,4.21624-7.24824,7.3657-15.226,13.53791-21.24486.19847-1.68909,1.65559-2.44447,2.69259-3.44659,8.25428-7.97641,15.97955-16.4522,23.76293-24.87783,5.60635-6.069,10.26993-12.97711,16.509-18.47712,5.38775-.40992,10.69775-.97094,15.87776-2.86257a7.335,7.335,0,0,1,7.07751.82538,17.50745,17.50745,0,0,1,2.84261-.77925c17.16082-1.77636,31.98631-7.76483,41.58273-23.10116,1.15211-1.84136,2.66623-1.64583,4.33977-1.48337,15.07717,1.4639,30.15191,2.91938,45.0742,5.64947C596.46,261.5197,620.62673,271.698,639.74475,291.738c14.72,15.43013,25.87367,33.377,35.66331,52.2121a339.46519,339.46519,0,0,1,33.36081,96.33543c1.17957,6.49432.83243,13.26058,3.40761,19.50286C712.23592,461.71569,710.66467,463.69869,712.37409,465.56951ZM605.39125,476.70832c-1.27709,1.042-2.13662-.13737-3.03729-.65341q-20.54413-11.77293-41.06045-23.59456c-1.42722-.81868-2.79854-2.236-4.89232-1.20912,4.121,4.83171,71.74967,43.1142,75.89133,42.24207-8.12343-4.67823-15.60239-8.859-22.91938-13.30629-1.45383-.88366-4.11237-.77259-4.03352-3.53007,2.25867-.47308,3.07475-1.47727,2.52183-4.05723-4.10968-19.17386-8.04067-38.38605-12.024-57.587-.265-1.277-.36386-2.661-2.07218-2.88655-1.07118.73774-.836,1.72485-.62969,2.71543,2.95086,14.16267,5.979,28.3099,8.81073,42.49637C603.22948,463.76624,605.35109,470.05631,605.39125,476.70832ZM408.63289,423.72845c-2.52,0-4.02253-.12645-5.49784.0205-9.31569.928-13.57807,9.79079-8.462,17.565a19.10391,19.10391,0,0,0,2.4392,3.154c1.55514,1.53127,1.7154,2.77377.35043,4.70453-3.35061,4.73987-2.7236,9.746-.14561,14.62769,1.98185,3.75295,5.04147,6.61863,8.22376,9.30844,29.76242,25.157,59.7758,50.01935,91.67192,72.45185,9.99213,7.02757,8.16322,7.71644,15.48912-3.28726,9.898-14.86691,17.29411-31.10973,24.73255-47.28542,5.98083-13.00567,11.55813-26.18709,15.60764-39.96829,1.16748-3.97264.40182-6.11461-3.56945-8.2196-29.70763-15.74734-59.26719-31.7745-88.84007-47.77535-9.07132-4.90824-17.848-10.54154-28.28858-12.13048-10.16862-1.54757-13.5307,1.64076-12.98523,11.76506.012.22207-.37386.46557-.5827.692-6.28756-1.64113-13.05566-3.35622-16.96431,3.62979C397.20317,411.218,402.20045,417.46346,408.63289,423.72845Z" transform="translate(643.52384 340.51615)"/><path class="cls-3" d="M84.968,52.91505c-9.60618,11.984-21.17627,21.42641-36.69811,23.74584C23.6836,80.33481,2.91823,64.22985-1.54579,38.97573a2.15267,2.15267,0,0,0,.73326-2.10352C13.79424,26.4631,29.802,22.88109,47.44786,26.69451c3.7155.803,7.597.40888,9.423-3.671,1.79547-4.0117.79966-7.80077-2.08841-11.09425-3.45874-3.94421-8.30016-5.36-12.94708-7.1561-3.17222-1.22614-6.608-1.98324-9.325-4.574,1.62453-.923,2.89869-.29445,4.16736-.16587,8.77.88855,17.525,1.97427,26.3124,2.62463,6.54571.48449,9.62846-4.55252,6.75455-10.58673a10.99934,10.99934,0,0,0-6.68687-5.61084c-3.82-1.36589-7.774-1.66221-11.7608-1.99035-3.46925-.28554-6.99605-.63479-10.36807-3.54277,12.51958.94112,24.28887,1.81795,36.05663,2.71486,3.92868.29942,7.98654.55772,9.7537-3.95794,1.69806-4.33935.3002-8.0674-3.08214-11.23562-2.17507-2.03746-4.95182-3.124-7.75616-4.94791,3.78391-1.64433,7.32578-2.93123,7.3696-7.45521.04486-4.62734-3.40132-6.62761-6.69871-8.529a22.34848,22.34848,0,0,0-6.5155-2.42291c-13.903-2.89927-27.88726-4.73147-42.0977-2.4121l-.39931-1.021c.2197-4.50779,3.45911-8.26544,3.20261-12.89152,1.051-.49587,3.15513-.2893,1.65754-2.485,3.5102-10.96915,7.53889-21.71031,14.10834-31.29422,19.52734-28.4877,46.42386-44.39811,80.99749-46.15451,16.62152-.84443,33.318-.21015,49.98062-.24554l2.40374-.1191,60.61459.061c1.39585.3762,2.01078-.36717,2.28748-1.59536,1.03944,2.15351,3.009,1.64564,4.78,1.6468q18.9903.01236,37.9807.003A68.98819,68.98819,0,0,1,352.9542-66.40746c-2.0651,8.73823-4.41056,17.42231-6.97767,26.02671-3.13066,10.49369-5.09494,21.32688-9.18179,31.53942,1.52889,1.66786.033,2.73195-.83769,3.83232-3.81491,4.82146-7.59394,9.67539-11.5436,14.38535-7.71381,9.199-16.8,16.97166-26.01758,24.58875-1.10767.91534-2.4547,2.25108-3.97664,1.25184-1.60408-1.05314-.5539-2.76322-.23154-4.12985,1.412-5.984,2.83369-11.96852,4.414-17.90976q9.60875-36.127,19.28792-72.23518c.30637-1.15145,1.06593-2.60147-.71574-3.41031-1.41843.72206-1.54391,2.12641-1.8803,3.381q-5.35638,19.97878-10.68164,39.96591C299.55725-.1773,294.467,18.7574,289.50311,37.72512a8.67539,8.67539,0,0,1-3.93929,5.43722,192.51135,192.51135,0,0,1-92.96054,31.17772c-35.9366,2.494-70.1083-4.71235-102.25677-21.13813C88.62177,52.32071,86.85956,51.128,84.968,52.91505ZM125.54661-54.554c.02239-.47518.20145-1.21388-.6499-1.47821-1.0608-.32933-1.53146.44329-1.82647,1.21751-.88638,2.32645-1.72394,4.6724-2.53545,7.02629Q105.124-3.084,89.76441,41.63814c-.82657,2.41427-3.61968,5.67241-.99837,7.19484,1.37657.79951,2.46539-3.97618,3.28555-6.31118Q105.90832,3.07,119.50634-36.47264C121.56472-42.42511,123.501-48.41977,125.54661-54.554Z" transform="translate(643.52384 340.51615)"/><path class="cls-4" d="M32.41951-73.716c1.49759,2.19567-.60657,1.9891-1.66078,2.48555C16.66436-70.21116,6.79942-62.04236-.0039-50.80686-15.31115-25.52726-15.39031,1.43405-6.52031,28.89379A16.831,16.831,0,0,0-.81253,36.87221a2.15267,2.15267,0,0,1-.73326,2.10352c-3.73063-1.45261-5.0737-4.94748-6.581-8.11817C-13.24966,20.082-14.1322,8.46863-14.40024-3.2235c-.13139-5.73274-.15385-5.80545-4.96646-3.08269C-45.98236,8.75192-72.561,23.87625-99.23919,38.82286c-3.03893,1.70264-3.08183,2.56354-.90206,5.23309q61.12061,74.85446,35.01316,167.97984c-1.08527,3.87915-.39919,5.23675,3.29141,6.6312q92.27471,34.8633,184.44957,69.99133c25.30433,9.61814,50.63289,19.17465,75.8602,28.99114,4.02437,1.56588,4.23723-.14909,4.72156-3.23295,7.79167-49.6084,27.7049-93.743,60.257-132.02441,34.39647-40.45028,76.99692-68.5475,127.94661-83.68324,4.80249-1.42674,5.669-2.64513,3.64526-7.34161C388.82281,76.93106,397.053,59.97,418.81348,62.581c-2.64548-6.2194-5.83265-11.93154-7.90336-18.11658-.84793-2.53285-.82938-3.48236,2.29017-3.50353,25.37458-.1721,49.644,4.16237,71.89736,17.07668a90.51506,90.51506,0,0,1,31.94653,30.94137,8.61235,8.61235,0,0,0,6.05967,4.37175c58.88125,12.30216,107.93733,41.57158,147.29081,86.76678,33.881,38.91009,54.68954,84.12574,62.27787,135.30289q11.57016,78.03026-20.29868,150.14972c-1.70918-1.87137-.13793-3.85437-.19652-5.78348a261.50529,261.50529,0,0,0,19.16306-70.87273c3.832-31.02454,3.04241-61.89932-4.63245-92.19552C702.078,199.493,641.78653,134.81148,547.19011,101.95236a151.91776,151.91776,0,0,0-26.33188-6.51745c3.32791,7.61385,6.14,14.5577,7.08069,22.02362,2.38965,18.965-.39766,35.97788-18.47453,46.88827-1.66316,1.00382-1.4924,2.12634-1.23522,3.736a15.37332,15.37332,0,0,1-5.43328,14.71844c-1.94548,1.67786-2.1996,3.15568-1.87981,5.52967,2.28712,16.98045,4.5425,33.96865,6.457,50.99377.5556,4.94052.67705,9.4001,7.40072,8.87856a2.52746,2.52746,0,0,1,1.58785.89154c.15172.1522-.053.97008-.32895,1.18837-1.90056,1.50314-9.634-1.4813-9.944-3.861-2.36352-18.14257-4.77807-36.27935-6.95912-54.44408-.46-3.83082-.79191-6.02722-5.74843-4.603-5.44328,1.564-10.89035.24209-15.67782-3.02027-.89712-.6113-1.59529-1.91367-2.84077-.57688-5.248,5.6325-10.48708,11.27331-15.9278,17.12435,9.2023,3.6827,16.06048,8.68767,16.52759,19.05821a2.39015,2.39015,0,0,0,1.1615,2.04616c6.058,3.93749,6.48712,9.98144,6.11216,16.32972-.23191,3.928-.92678,7.765-.30355,11.80809,1.61421,10.47343-2.29737,18.52136-11.629,23.7976-.66815.37781-1.57406.64639-1.56942,1.97488a13.55793,13.55793,0,0,0,6.607.41754,7.335,7.335,0,0,0-7.07751-.82538c-5.18,1.89163-10.49,2.45265-15.87885,2.866.44941-1.06729-.63361-2.59167.50873-3.29189a39.59151,39.59151,0,0,0,13.80351-14.75878,1.03466,1.03466,0,0,1,1.6479-.39111,1.24347,1.24347,0,0,1,.13683,1.78227,65.95139,65.95139,0,0,1-4.04158,6.27432c-1.84649,2.33488-3.99763,4.42888-6.39753,7.04149,14.26671-.56681,23.9703-11.83786,21.5914-24.70818-.78459-4.24573-.00232-8.18335.33517-12.2573.32089-3.874.76261-8.62774-2.1741-10.85973-4.50734-3.42572-5.07577-7.866-6.31355-12.56493-1.09144-4.14358-4.09284-7.183-8.04238-9.0531a36.65314,36.65314,0,0,0-6.43562-2.66936c-2.62924-.67075-2.49852-1.58035-.86868-3.21915,3.64086-3.661,7.3829-7.23506,10.82542-11.07613,3.99116-4.45323,7.92166-8.99568,11.458-13.80829,2.10537-2.86526,3.12431-6.43128.66351-9.76529-2.42675-3.28823-5.91089-4.09616-9.80832-3.42737a23.25822,23.25822,0,0,0-7.76592,3.21769c-7.785,4.55557-14.74432,10.2264-21.78779,15.80745-8.46189,6.70493-16.831,13.62729-27.37925,16.97075-1.28246.40662-3.18778,2.28581-3.87826.47454-.825-2.16461,1.96989-2.06349,3.3041-2.64507,3.48573-1.51938,7.11011-2.73552,11.39336-5.82279a46.80483,46.80483,0,0,0-5.112-3.65109c-3.32473-1.75427-2.7878-8.35465-7.89555-7.12692-3.77244.90673-6.94533,3.8321-10.0213,6.40809-.25547.21383-.49873.44195-.752.65841-11.89342,10.17019-18.218,23.87382-24.12287,37.86891-4.00179,9.48481-7.63959,19.18851-14.27355,27.28362-1.18665,1.44792-2.14724,3.88422-5.54435,2.684,3.589-4.14236,7.15514-7.86595,9.292-12.53332q5.6017-12.23649,10.99618-24.56782c7.29331-16.59165,16.44886-31.62175,33.42965-40.11859,1.43625-.71871,1.89543-1.3413,1.2838-3.036-6.053-16.76966-2.81978-32.76392,4.468-48.28584,1.1244-2.39492.98159-3.75679-.907-5.52039a75.24669,75.24669,0,0,1-13.6895-17.09231c-1.84612-3.16771-3.5636-3.38319-6.69426-2.42263-69.53822,21.33609-122.6664,63.43676-158.34337,126.74336-28.76815,51.04735-38.386,106.13062-31.07614,164.208,1.06337,8.448,1.11,8.455,9.79342,8.40439,2.325-.01355,4.64955-.13133,6.97426-.20127,16.80271.08465,33.60541.20139,50.40812.22733,3.431.00531,6.85415-.24124,10.24027,1.356-3.54394,1.56386-7.28489.96513-11.01851,1.07766-16.26639.4906-32.55047-.48589-48.80416.64969-3.50525-1.53823-7.2163-.33735-10.79222-.80982-4.37443-.578-5.18928.93462-4.31547,5.215q14.22,69.65152,60.75654,123.30794c12.90577,14.80406,26.916,28.50281,43.40469,39.41557l-.0448-.07628c.45211,1.17939,1.01553,1.525,1.79669.24007,1.38011,4.663,5.978,5.97951,9.33547,8.16535a265.90662,265.90662,0,0,0,166.5393,42.55856A257.73165,257.73165,0,0,0,581.139,595.99461c2.69565-1.28912,5.412-2.53492,8.099-3.8415.90018-.4378,1.96647-1.02512,1.90044-2.10407-.09972-1.62831-1.65425-1.30987-2.6871-1.44132a177.33279,177.33279,0,0,1-44.27887-11.57381,189.60883,189.60883,0,0,1-35.39552-19.073,14.18085,14.18085,0,0,1-2.43346-2.42044c-.13951-.15635.0487-.60477.10985-1.12411,1.61592-.45464,2.68881.606,3.8541,1.42986,23.95553,16.93437,50.745,26.446,79.63544,30.56452,3.62194.51629,7.732-1.08114,10.81065,2.17645-.17015.10777-.33358.22141-.50385.32393A196.77311,196.77311,0,0,1,570.79753,603.441c-77.9408,30.67254-154.668,27.9261-228.88894-11.02262-57.49418-30.1709-98.028-76.6022-122.70607-136.75745a254.67491,254.67491,0,0,1-14.36485-49.1363c-.72246-3.78926-2.047-4.74866-5.75173-4.73944q-74.23455.185-148.46976.01477c-1.70991-.00293-4.90526,1.24494-4.92259-1.11239-.01434-1.95914,3.29458-1.10446,5.11312-1.10635q73.73508-.0769,147.46987.06359c4.336.01446,5.26813-1.05827,4.64136-5.23577a254.63459,254.63459,0,0,1-.99843-69.20158c.45833-3.71853-1.46493-4.42858-4.09192-5.42624Q113.98713,287.9419,30.17713,256.022c-31.20534-11.86142-62.46-23.59389-93.61344-35.58987-3.22183-1.24061-4.101-.65348-5.26575,2.34842-16.82217,43.35593-45.613,76.14554-87.219,97.16027-30.09778,15.20213-62.12182,21.10248-95.77935,18.13043a183.19916,183.19916,0,0,1-38.99371-7.86431c-2.72415-.8573-5.225-.317-7.85185.12047-12.82394,2.1363-25.4902,2.56147-37.47752-3.75386-14.04838-7.40106-19.80279-20.4445-23.52659-34.79348a11.5317,11.5317,0,0,0-2.865-5.6081c-29.18118-29.80236-46.06747-65.50361-51.02542-106.87209a63.54559,63.54559,0,0,1-.76769-11.94045c.33771-4.74579-1.79052-5.23357-5.78306-5.22q-58.48755.19891-116.97616.071c-27.99232-.02295-55.98558-.01745-83.97587-.28841-4.4515-.043-3.7441,2.43624-3.744,5.02565q.00261,71.98269-.04625,143.96536c-.00215,1.666.93478,4.82555-.9168,4.77081-2.741-.081-1.22583-3.21134-1.22934-4.87-.10248-48.32153-.02943-96.64349-.17111-144.96485-.01286-4.388.91727-5.92354,5.67511-5.90431,37.9902.15366,75.98159-.00525,113.97263-.03692,29.494-.02466,58.98841-.06579,88.48173.08006,3.402.01678,4.431-.74025,4.55882-4.27649,1.7212-47.62144,19.12171-88.61216,52.71526-122.48585C-343.10376,14.52729-321.17933.927-296.47326-8.1635a7.88863,7.88863,0,0,0,4.09467-2.56178c14.5248-19.57773,34.54489-24.62884,57.51645-21.41134a47.69258,47.69258,0,0,1,28.39972,14.40205c2.16414,2.25307,4.73132,2.38727,7.1776,2.89043,36.1563,7.43736,66.72272,24.89757,92.27324,51.31864,2.03348,2.10273,3.40645,2.30271,5.82716.92309q41.577-23.69635,83.2785-47.17363c2.82961-1.5894,3.85324-3.43805,4.09126-6.61225A74.7528,74.7528,0,0,1-5.73524-46.03062,6.7911,6.7911,0,0,0-5.388-52.12744c-10.12181-27.27355-13.50324-55.48394-11.26317-84.402A171.63168,171.63168,0,0,1-12.793-161.66877c.64971-2.82995.50916-4.01539-2.8866-4.5109-32.94448-4.80709-56.773-22.47259-69.49044-53.0571-13.28751-31.95535-8.71688-62.57863,13.28177-89.38909,40.33384-49.15609,117.45759-39.94485,145.46409,17.0253,1.84594,3.75487,3.1057,4.25021,6.69859,2.11756,33.71569-20.01287,70.38115-28.70674,109.36565-26.68017a191.119,191.119,0,0,1,95.19286,30.71086,196.91809,196.91809,0,0,1,39.47773,33.23372c2.1636,2.38605,4.46866,2.40692,7.12793,2.40655q88.48225-.01194,176.96438.03613c2.01029.00165,4.28337-.79813,7.02344,1.91474H328.958c4.958,6.85813,9.52294,12.45566,13.31906,18.53342,43.72009,69.99819,45.36689,140.99809,4.33915,212.67088-13.94924,24.36865-33.27415,44.2276-56.3527,59.86864A193.529,193.529,0,0,1,200.4002,76.01554a196.54173,196.54173,0,0,1-110.27291-20.106c-1.776-.88824-3.44447-1.99136-5.16115-2.99451,1.89342-1.7871,3.65563-.59434,5.38037.28688C122.495,69.62771,156.66668,76.834,192.60328,74.34006a192.51135,192.51135,0,0,0,92.96054-31.17772,8.67539,8.67539,0,0,0,3.93929-5.43722C294.467,18.7574,299.55725-.1773,304.6119-19.12127q5.33259-19.98521,10.68164-39.96591c.33639-1.25458.46187-2.65893,1.8803-3.381,1.78167.80884,1.02211,2.25886.71574,3.41031q-9.61167,36.12623-19.28792,72.23518c-1.58028,5.94124-3.002,11.92574-4.414,17.90976-.32236,1.36663-1.37254,3.07671.23154,4.12985,1.52194.99924,2.869-.3365,3.97664-1.25184,9.21755-7.61709,18.30377-15.38973,26.01758-24.58875,3.94966-4.71,7.72869-9.56389,11.5436-14.38535.87064-1.10037,2.36658-2.16446.84037-3.83546,1.84087.12254,1.86651.13978,3.33828-2.051,27.52108-40.96646,37.98545-86.19225,31.7317-134.86218-4.743-36.91351-19.761-69.80956-43.599-98.56611a7.79634,7.79634,0,0,0-6.72769-3.23123c-13.1638.1399-26.32992.08879-39.49482.02093-1.61886-.00836-3.59631.732-5.594-2.25514h47.023a192.241,192.241,0,0,0-44.08529-36.38534c-36.7097-21.93044-76.39628-31.035-119.06466-26.96148-28.60489,2.73089-55.12925,11.65785-79.91471,26.06522-2.822,1.6404-3.3348,3.12713-2.20986,6.32675a82.04869,82.04869,0,0,1,4.25457,35.44954c-4.54171,46.20987-41.4519,79.66516-87.93519,79.84873-3.33938.01321-4.48672.99958-5.15816,4.19523a195.36993,195.36993,0,0,0-.62365,79.83149,155.59,155.59,0,0,0,8.671,29.68952C6.38076-64.174,16.79527-73.1826,32.41951-73.716ZM-171.08607,276.61333c-4.0575.0296-6.70561,3.07226-10.0127,4.70148-4.937,2.43209-9.12424,6.37843-14.80169,7.31562-.09216-1.85942,1.27642-2.47274,2.6113-3.23654,9.79379-5.60419,19.59044-11.20478,29.31655-16.9248a12.07542,12.07542,0,0,1,7.67084-1.3615c9.63609.89209,19.28414,1.2973,28.91-.13352,4.13629-.61485,8.23334-1.52371,11.54617-4.25666.86575-.71414,3.00677-1.64095,1.21264-3.40834-2.46233-2.42537-4.86516-4.87126-8.61312-5.48616a109.07539,109.07539,0,0,0-11.943-.80329c-9.69792-.52025-19.19516-2.05739-28.05771-6.25424-1.98277-.93884-4.78729-1.56436-4.2661-5.54426,4.7149,3.86517,9.83986,5.58185,15.16109,6.90417a103.193,103.193,0,0,0,22.73849,2.80008c6.60766.14647,13.17918.75484,16.80833,7.78247,3.48035-5.82761,3.03563-7.84587-2.21163-10.715-1.15534-.63174-2.42773-.83124-2.63162-2.55872-.48665-4.1235-3.58978-5.68395-7.06922-6.71755-5.23658-1.55569-10.53156-.90716-15.84083-.41211-15.38537,1.43461-29.31063-2.36222-41.5911-11.86057-.86087-.6658-2.12283-1.2126-1.20563-2.62182.998-.50311,1.62459-.025,2.31288.49358,12.97863,9.77852,27.443,13.76282,43.63147,11.38908a34.67473,34.67473,0,0,1,8.97527-.04712c5.56486.65354,10.9509,1.87913,13,8.24072.638,1.98086,2.08176,2.56055,4.657,2.413-2.76686-7.82336-5.29822-15.15667-7.94949-22.44635-10.33408-28.41389-20.45108-56.91962-33.81816-84.111-9.54406-19.41443-25.90663-28.52947-46.80956-30.6582a2.45661,2.45661,0,0,1-1.07087-2.19354c11.1806-.18924,21.005,4.01207,30.43423,9.44593,12.59025,7.25539,18.66342,19.50591,24.23688,32.03966,14.59157,32.814,26.50977,66.65464,38.33893,100.52582,2.55381,7.31238,5.075,14.63624,8.03274,23.171C-59.331,218.61537-47.953,161.072-70.81164,99.17382c-22.45673-60.81-67.4843-97.25882-130.52265-111.85371,1.89159,4.13817,4.26622,8.31849,3.53943,12.448-1.37852,7.83209,2.28242,14.06766,4.78527,20.76879a59.54023,59.54023,0,0,1,3.04705,12.58886c2.87928,20.41093-6.305,37.58245-23.94088,43.13617-1.44309.45441-2.55571,1.0939-2.75619,2.98023-.769,7.23592-1.7276,14.4517-2.61557,21.66723l-1.22064,1.20942c-1.5-.93242-.90329-2.29209-.74962-3.57945.70958-5.9427,1.43168-11.88424,2.07718-17.834.136-1.25446,1.161-3.10381-1.64235-2.92848-15.34753.95952-26.03936-7.31232-35.33924-18.117-1.3759-1.59853-2.47045-2.29814-4.58675-1.72833-2.08413.5612-2.89667,1.56234-3.08012,3.7405-.33371,3.962-.94125,7.9127-1.65205,11.82865-1.415,7.79528-1.35033,15.84779-4.061,23.4163.20176-2.0284-1.22887-1.31549-2.17476-1.23847-7.12243.57987-13.31241,7.2934-13.8292,15.79354a60.96305,60.96305,0,0,0-28.52217,14.63581c-20.93155,18.66948-33.23082,42.09762-41.026,68.303-7.35447,24.72368-11.724,50.13708-16.21824,75.50159-.20426,1.15273-.74278,2.443.21327,3.32735,3.22736,2.98536,5.39547,7.03294,9.59889,9.88679-1.78048-17.88962-2.00623-35.13364,1.3401-52.25854a2.07605,2.07605,0,0,1,.95642,1.82024c-.06683,1.99642-.16316,3.99412-.32806,5.98469-1.32329,15.97363-1.80426,31.94305,1.21417,47.78511,5.861,30.76115,22.60966,47.26285,56.40011,42.00041,26.38052-4.10831,50.73762-14.19813,74.72226-25.39357,2.60892-1.21784,1.66737-2.486.79661-4.23036a197.61159,197.61159,0,0,1-17.79192-52.67925c-.7495-4.07664-2.337-3.75143-5.28376-2.91616-10.38345,2.94307-20.8444,5.6153-31.208,8.62446-3.8782,1.12606-5.13563.7051-4.97946-3.87427,1.00533-29.47221,1.65052-58.95657,2.55094-88.43275.05035-1.64857-1.438-4.82122,1.38316-4.80517,1.89214.01075.85709,3.12554.8159,4.79126-.70971,28.64933-1.44334,57.2986-2.3703,85.9414-.125,3.86462.88424,4.52694,4.40414,3.44812,5.55815-1.70344,11.2818-2.87033,16.82688-4.61031,1.26915-.39832,3.46967.1038,3.81485-2.22582,1.56722,1.177,3.0194.29341,4.56667-.14726,3.59283-1.023,7.14458-2.36283,10.99465-2.01.16679,5.84341,1.78387,11.41873,3.24594,17.008,4.11933,15.7471,9.3224,31.07678,17.83995,45.089a15.179,15.179,0,0,1-4.43,3.02753c-13.41383,6.75374-27.42191,12.08776-41.37908,17.5486-6.60943,1.79674-13.21885,3.59343-20.809,5.65679,6.61687,2.55445,12.59611,3.55071,18.47453,4.89451,1.18256.27041,1.78931-.56693,2.15554-1.57765.67992,2.13837,1.17993,2.41079,4.56575,2.91859a175.06926,175.06926,0,0,0,79.49026-6.074c8.31085-2.61663,16.87564-4.93863,24.18049-10.102.33071.01978.72093.16557.9836.04138,21.627-10.21914,39.82974-24.90023,55.61425-42.727.67485-.76216,1.3873-1.58156,1.0334-2.651-1.9196-5.80118-3.89944-11.58247-6.29684-18.66551-3.67772,10.34356-10.56629,14.02993-19.49225,15.0968-9.6356,1.15169-19.2336.818-28.85871.04858C-162.607,268.97092-167.05554,272.4072-171.08607,276.61333ZM80.36475-252.8583A85.13989,85.13989,0,0,0-4.99709-338.12436C-51.85224-338.0381-90.0187-299.41-89.89762-252.197c.12016,46.85744,38.98358,84.73865,86.76081,84.56824C42.30472-167.79083,80.49206-206.76841,80.36475-252.8583Zm-454.0623,522.26092c.28217-1.25337.43459-1.84038.54526-2.43514,5.16545-27.76268,9.65544-55.70483,18.856-82.51513,7.31425-21.3137,17.87294-40.80508,34.69484-56.33737,1.73347-1.6006,2.9303-3.04248,3.152-5.74131,1.45588-17.71905,2.91852-35.44848,4.98411-53.10382,2.94665-25.1865,6.95076-50.20158,15.5543-74.85343-1.32561.4098-2.24275.63865-3.11992.97252A166.38446,166.38446,0,0,0-345.9311,22.44932c-41.79839,34.40963-63.57,78.86794-66.36393,132.82417-.19047,3.679.6087,4.854,4.48449,4.74756,10.48918-.28823,20.99173-.13084,31.48838-.06127,1.60552.01062,3.63155-.79432,4.75366,1.41661-1.55141,1.41984-3.29235.80122-4.85963.811-10.49675.06548-20.99652.17356-31.48973-.026-3.55536-.0675-4.46744,1.03287-4.27465,4.54421,1.66237,30.27776,9.80435,58.57766,25.56011,84.55775A120.74971,120.74971,0,0,0-373.69755,269.40262ZM410.1563,154.85357c.08605,11.52535,2.88324,22.021,11.31047,30.49788,2.55552,2.57063,4.569,3.42945,7.83684.71536,7.28587-6.05145,14.77716-11.8865,22.4862-17.38719,5.366-3.82881,10.69006-8.00046,17.43545-9.335,6.80582-1.34667,13.50923,2.17,13.64972,8.10683.15818,6.68783,3.22354,4.07083,6.23312,2.8a17.80323,17.80323,0,0,0,2.12209-1.29645c.76945-.46283,1.70222-.698,2.17849.17057.47627.86828-.16222,1.48514-1.05006,1.84251-3.07561,1.2378-6.10667,2.59076-9.20962,3.75362a8.16742,8.16742,0,0,0-5.12521,6.10723c-.34481,2.18756,2.98773,3.09264,5.11874,3.86286,8.26062,2.98572,17.97214-.82636,21.7818-8.4562,2.56944-5.146,1.48606-11.48642-2.65463-16.17423-3.87655-4.38854-8.01516-3.86365-12.3703-.85553-.69036.47692-1.5848.95793-2.2422.29879-.80107-.80317-.18553-1.85948-.00794-2.82755a43.231,43.231,0,0,0-.76847-19.70619c-.43526-1.54812-.4593-3.61692-2.973-4.0969-19.83572-3.78755-37.0284-13.37414-53.379-24.69993-2.23121-1.54544-3.00115-.70535-4.08124,1.19947-4.67359,8.24163-9.32,16.49718-12.48345,25.465C411.68458,141.30068,410.07269,147.92364,410.1563,154.85357ZM-245.28458,23.48165a40.95766,40.95766,0,0,1-5.25172,19.49822c-1.5757,2.76535-2.79469,3.37153-4.89817.46734-2.23872-3.091-4.75165-5.99006-7.23607-8.89492-4.56819-5.34129-10.79613-6.377-15.90931-2.73027-6.20926,4.42851-7.73131,10.64028-4.14715,16.9254,4.051,7.1038,12.0034,9.86274,21.28845,6.90381,3.22006-1.02616,5.10012-.42865,6.974,2.24627,3.67973,5.25267,8.67159,9.12517,14.01558,12.59013,20.70312,13.42364,45.538-1.95925,48.17672-23.29022,1.66163-13.43237-1.72284-25.66855-8.06984-37.32993-3.40749-6.26071-3.344-6.24417-9.58678-3.48864a45.42479,45.42479,0,0,1-5.663,1.91849c-9.29372,2.707-18.78248,2.37009-28.2234,1.33862-3.58435-.39155-3.88174.22507-2.91834,3.50805C-245.76433,16.44724-245.72912,20.0245-245.28458,23.48165Zm134.20519,223.21281q-.19929.14574-.39846.29159c.10051.13035.18815.34913.30508.36616.116.0169.26163-.16941.39425-.26663Q-110.92892,246.89-111.07939,246.69446Z" transform="translate(643.52384 340.51615)"/><path class="cls-4" d="M640.86524-145.36477c30.48477-.00144,60.96978-.0667,91.45442.016,33.87138.09187,63.09858,25.74047,67.75984,59.3092,4.769,34.34619-15.9793,66.7936-48.64634,76.45672-11.26885,3.33336-22.745,2.68724-34.1958,2.56443A14.31054,14.31054,0,0,0,706.59856-2.96c-22.4032,20.38768-44.98741,40.5766-67.53477,60.80561-.92751.83228-1.7027,2.52723-3.2045,1.83086-1.45419-.67422-.78715-2.387-.78849-3.6384-.02222-19.15251-.12816-38.30666.11864-57.45617.05541-4.28449-.88394-5.63864-5.43035-5.60974-28.31616.18009-56.64588.50746-84.949-.15864-33.03736-.77751-62.04157-31.014-63.97289-63.95-2.15505-36.75078,24.16316-69.38533,61.10746-73.76951,2.30677-.27373,4.6421-.32664,6.96644-.42584,1.4968-.06392,2.998-.03054,4.49722-.0306Q597.13673-145.36423,640.86524-145.36477ZM637.251,56.064c1.61458-1.35479,2.35376-1.93893,3.0534-2.5672,21.79255-19.5687,43.63685-39.08041,65.3066-58.784a13.87835,13.87835,0,0,1,10.16485-3.96715c9.296.0068,18.62368.80216,27.88847-.98445,34.3922-6.63218,57.67593-37.35406,54.52244-72.0929a66.95786,66.95786,0,0,0-66.89128-60.70107q-90.44584-.02878-180.89183-.00473A66.96655,66.96655,0,0,0,483.97-86.8202C477.2696-46.47382,508.27018-9.45852,549.18954-9.19259c27.81548.18079,55.63341.1045,83.44926-.051,3.58776-.02,5.02914.59684,4.87425,4.55023-.34518,8.81516-.232,17.64923-.2551,26.47574C637.229,32.84245,637.251,43.90271,637.251,56.064Z" transform="translate(643.52384 340.51615)"/><path class="cls-4" d="M-333.26417-38.6458q-12.26853-11.0094-24.44516-21.93885-24.13617-21.70284-48.22247-43.46077c-1.71418-1.55609-3.49314-1.54538-5.50157-1.57452-11.6237-.1684-23.29.74474-34.76307-2.28761-32.23779-8.52037-53.53249-38.474-51.29389-72.39689,2.12069-32.13584,27.52587-58.88794,59.91748-63.25232a85.25082,85.25082,0,0,1,11.44346-.76014c59.48806.00787,118.97645-.10787,178.46407.04662,36.462.09468,67.75612,26.54941,69.98075,65.7606,1.99619,35.18612-22.40278,66.42151-58.93916,72.19529a84.61,84.61,0,0,1-12.96375.67322c-25.49474.05889-50.99077.14957-76.48358-.07857-4.64756-.04159-6.22412.86685-6.13227,5.90025.33736,18.48936.14738,36.98876.09371,55.48419C-332.11469-42.59217-331.47721-40.67514-333.26417-38.6458Zm-1.10264-4.21089c0-2.931.00025-4.534,0-6.13707-.003-17.99672.13512-35.99546-.11589-53.9887-.05746-4.1192,1.26458-4.94455,5.06945-4.92518,27.162.13829,54.32532.09221,81.488.01974a72.43721,72.43721,0,0,0,11.4401-.79014c37.79254-6.1713,60.6711-41.52153,56.0345-75.17973-4.45139-32.31257-33.07386-58.15288-65.88156-58.1509q-90.23733.00544-180.47464-.02917a74.00138,74.00138,0,0,0-20.65256,2.90895c-27.42859,7.88625-47.546,34.28672-47.79453,62.674-.26667,30.45169,18.59281,56.60836,46.7055,65.45327,12.22756,3.847,24.6826,3.07357,37.12675,3.06863a11.53409,11.53409,0,0,1,8.42537,3.25915C-380.554-84.32546-357.99464-64.10609-334.36681-42.85669Z" transform="translate(643.52384 340.51615)"/><path class="cls-5" d="M221.465,399.32785c-2.32471.06987-4.6493.18765-6.97426.2012-8.68343.05059-8.73005.04363-9.79342-8.40439-7.30991-58.07736,2.308-113.16063,31.07614-164.208,35.677-63.3066,88.80515-105.40727,158.34337-126.74336,3.13066-.96056,4.84814-.74508,6.69426,2.42263a75.24669,75.24669,0,0,0,13.6895,17.09231c1.8886,1.7636,2.03141,3.12547.907,5.52039-7.28782,15.52192-10.521,31.51618-4.468,48.28584.61163,1.69471.15245,2.3173-1.2838,3.036-16.98079,8.49684-26.13634,23.52694-33.42965,40.11859q-5.41553,12.32034-10.99618,24.56782c-2.13687,4.66737-5.703,8.391-9.292,12.53332,3.39711,1.20021,4.3577-1.23609,5.54435-2.684,6.634-8.09511,10.27176-17.79881,14.27355-27.28362,5.9049-13.99509,12.22945-27.69872,24.12287-37.86891.25327-.21646.49653-.44458.752-.65841,3.076-2.576,6.24886-5.50136,10.0213-6.40809,5.10775-1.22773,4.57082,5.37265,7.89555,7.12692a46.80483,46.80483,0,0,1,5.112,3.65109c-4.28325,3.08727-7.90763,4.30341-11.39336,5.82279-1.33421.58158-4.12909.48046-3.3041,2.64507.69048,1.81127,2.5958-.06792,3.87826-.47454,10.54823-3.34346,18.91736-10.26582,27.37925-16.97075,7.04347-5.58105,14.00283-11.25188,21.78779-15.80745a23.25822,23.25822,0,0,1,7.76592-3.21769c3.89743-.66879,7.38157.13914,9.80832,3.42737,2.4608,3.334,1.44186,6.9-.66351,9.76529-3.53638,4.81261-7.46688,9.35506-11.458,13.80829-3.44252,3.84107-7.18456,7.41515-10.82542,11.07613-1.62984,1.6388-1.76056,2.5484.86868,3.21915a36.65314,36.65314,0,0,1,6.43562,2.66936c3.94954,1.87015,6.95094,4.90952,8.04238,9.0531,1.23778,4.69892,1.80621,9.13921,6.31355,12.56493,2.93671,2.232,2.495,6.98577,2.1741,10.85973-.33749,4.07395-1.11976,8.01157-.33517,12.2573,2.3789,12.87032-7.32469,24.14137-21.5914,24.70818,2.3999-2.61261,4.551-4.70661,6.39753-7.04149a65.95139,65.95139,0,0,0,4.04158-6.27432,1.24347,1.24347,0,0,0-.13683-1.78227,1.03466,1.03466,0,0,0-1.6479.39111,39.59151,39.59151,0,0,1-13.80351,14.75878c-1.14234.70022-.05932,2.2246-.50873,3.29189-6.238,5.4966-10.90159,12.40474-16.50794,18.47371-7.78338,8.42563-15.50865,16.90142-23.76293,24.87783-1.037,1.00212-2.49412,1.7575-2.69247,3.4455-5.27033,2.77646-8.69026,7.80681-13.52887,11.10987-10.96872,4.29523-15.60215,3.80086-23.05438-5.69231-15.17312-19.329-23.34024-41.18918-20.99039-66.24325.30466-3.24857,1.95061-5.966,3.16081-9.32437-3.93685.253-7.05433,2.12482-10.24626,3.57189-37.8092,17.14094-71.14841,40.3298-97.37128,72.89722-13.33981,16.56723-23.21672,34.8877-25.94276,56.38332C221.46913,391.652,221.61023,395.50807,221.465,399.32785Z" transform="translate(643.52384 340.51615)"/><path class="cls-5" d="M475.84091,276.33456a13.55793,13.55793,0,0,1-6.607-.41754c-.00464-1.32849.90127-1.59707,1.56942-1.97488,9.33168-5.27624,13.24326-13.32417,11.629-23.7976-.62323-4.04307.07164-7.88011.30355-11.80809.375-6.34828-.05419-12.39223-6.11216-16.32972a2.39015,2.39015,0,0,1-1.1615-2.04616c-.46711-10.37054-7.32529-15.37551-16.52759-19.05821,5.44072-5.851,10.67981-11.49185,15.9278-17.12435,1.24548-1.33679,1.94365-.03442,2.84077.57688,4.78747,3.26236,10.23454,4.58431,15.67782,3.02027,4.95652-1.42424,5.2884.77216,5.74843,4.603,2.181,18.16473,4.5956,36.30151,6.95912,54.44408.31,2.37967,8.04348,5.36411,9.944,3.861.276-.21829.48067-1.03617.32895-1.18837a2.52746,2.52746,0,0,0-1.58785-.89154c-6.72367.52154-6.84512-3.938-7.40072-8.87856-1.91448-17.02512-4.16986-34.01332-6.457-50.99377-.31979-2.374-.06567-3.85181,1.87981-5.52967a15.37332,15.37332,0,0,0,5.43328-14.71844c-.25718-1.6097-.42794-2.73222,1.23522-3.736,18.07687-10.91039,20.86418-27.92324,18.47453-46.88827-.94069-7.46592-3.75278-14.40977-7.08069-22.02362a151.91776,151.91776,0,0,1,26.33188,6.51745c94.59642,32.85912,154.88792,97.54059,179.51783,194.766,7.67486,30.2962,8.46445,61.171,4.63245,92.19552a261.50529,261.50529,0,0,1-19.16306,70.87273c-2.576-6.24045-2.22889-13.00671-3.40846-19.501a339.46519,339.46519,0,0,0-33.36081-96.33543c-9.78964-18.83505-20.94327-36.782-35.66331-52.2121-19.118-20.04007-43.28471-30.21832-70.06453-35.11777-14.92229-2.73009-29.997-4.18557-45.0742-5.64947-1.67354-.16246-3.18766-.358-4.33977,1.48337-9.59642,15.33633-24.42191,21.3248-41.58273,23.10116A17.50745,17.50745,0,0,0,475.84091,276.33456Z" transform="translate(643.52384 340.51615)"/><path class="cls-5" d="M408.63289,423.72845c-6.43244-6.265-11.42972-12.51044-6.82119-20.7475,3.90865-6.986,10.67675-5.27092,16.96858-3.62625.20457-.23.59039-.47351.57843-.69558-.54547-10.1243,2.81661-13.31263,12.98523-11.76506,10.44058,1.58894,19.21726,7.22224,28.28858,12.13048,29.57288,16.00085,59.13244,32.028,88.84007,47.77535,3.97127,2.105,4.73693,4.247,3.56945,8.2196-4.04951,13.7812-9.62681,26.96262-15.60764,39.96829-7.43844,16.17569-14.83452,32.41851-24.73255,47.28542-7.3259,11.0037-5.497,10.31483-15.48912,3.28726-31.89612-22.4325-61.9095-47.29489-91.67192-72.45185-3.18229-2.68981-6.24191-5.55549-8.22376-9.30844-2.578-4.88169-3.205-9.88782.14561-14.62769,1.365-1.93076,1.20471-3.17326-.35043-4.70453a19.10391,19.10391,0,0,1-2.4392-3.154c-5.116-7.77423-.85367-16.637,8.462-17.565C404.61036,423.602,406.11289,423.72845,408.63289,423.72845Zm53.04945,3.93371c-3.18631-4.78387-36.401-25.37355-39.87076-24.71544C435.218,411.83163,447.99479,420.43582,461.68234,427.66216Zm-15.68588,23.04c-11.06526-8.58173-21.73567-17.64094-34.26037-23.94962C422.62888,435.55166,433.65533,444.14432,445.99646,450.70211ZM430.4623,470.43467c-2.898-4.71631-28.06778-22.51384-31.20783-22.21866C409.40186,456.35347,419.21346,464.41038,430.4623,470.43467Z" transform="translate(643.52384 340.51615)"/><path class="cls-5" d="M311.34424,569.76712c-16.48865-10.91276-30.49892-24.61151-43.40469-39.41557Q221.25028,476.79464,207.183,407.04361c-.87381-4.2804-.059-5.793,4.31547-5.215,3.57592.47247,7.287-.72841,10.79222.80982.07641,14.62776,5.91076,27.23046,14.73786,38.31026,16.0479,20.14382,38.36175,26.9379,63.05,27.97376a98.10455,98.10455,0,0,0,10.47658-.08183c2.65671-.1732,3.376.464,3.08708,3.30953-1.66267,16.37378-3.074,32.773-4.58546,49.16229C307.55728,537.572,307.17853,553.77622,311.34424,569.76712Z" transform="translate(643.52384 340.51615)"/><path class="cls-4" d="M396.39234,336.28207c4.83861-3.30306,8.25854-8.33341,13.52887-11.10987-6.17233,6.02-9.32179,13.99771-13.538,21.246-19.61736,33.725-39.01062,67.58035-58.55193,101.34987-.64581,1.11605-1.21972,3.56614-2.94147,2.593-1.73432-.98039.05175-2.58215.73247-3.76118q30.128-52.18555,60.29162-104.35079a27.17717,27.17717,0,0,0,2.37829-4.36144C398.85326,336.29184,398.4108,335.17957,396.39234,336.28207Z" transform="translate(643.52384 340.51615)"/><path class="cls-4" d="M605.33962,476.65755c-.07885,2.75687,2.57969,2.6458,4.03352,3.52946,7.317,4.44731,14.79595,8.62806,22.91938,13.30629-4.14166.87213-71.77029-37.41036-75.89133-42.24207,2.09378-1.02684,3.4651.39044,4.89232,1.20912q20.53974,11.78089,41.06045,23.59456c.90067.516,1.7602,1.69544,3.03729.65341Z" transform="translate(643.52384 340.51615)"/><path class="cls-4" d="M605.39125,476.70832c-.04016-6.652-2.16177-12.94208-3.445-19.37037-2.83174-14.18647-5.85987-28.3337-8.81073-42.49637-.20628-.99058-.44149-1.97769.62969-2.71543,1.70832.22555,1.80719,1.60951,2.07218,2.88655,3.98335,19.201,7.91434,38.41315,12.024,57.587.55292,2.58-.26316,3.58415-2.52183,4.05753Z" transform="translate(643.52384 340.51615)"/><path class="cls-5" d="M313.09613,569.93091c-.78116,1.285-1.34458.93932-1.79669-.24007Q312.19785,569.81057,313.09613,569.93091Z" transform="translate(643.52384 340.51615)"/><path class="cls-5" d="M32.41951-73.716c-15.62424.53343-26.03875,9.542-35.0106,21.98648a155.59,155.59,0,0,1-8.671-29.68952,195.36993,195.36993,0,0,1,.62365-79.83149c.67144-3.19565,1.81878-4.182,5.15816-4.19523,46.48329-.18357,83.39348-33.63886,87.93519-79.84873a82.04869,82.04869,0,0,0-4.25457-35.44954c-1.12494-3.19962-.61218-4.68635,2.20986-6.32675,24.78546-14.40737,51.30982-23.33433,79.91471-26.06522,42.66838-4.07355,82.355,5.031,119.06466,26.96148a192.241,192.241,0,0,1,44.08529,36.38534h-47.023c1.99772,2.98715,3.97517,2.24678,5.594,2.25514,13.1649.06786,26.331.119,39.49482-.02093a7.79634,7.79634,0,0,1,6.72769,3.23123c23.838,28.75655,38.856,61.6526,43.599,98.56611,6.25375,48.66993-4.21062,93.89572-31.7317,134.86218-1.47177,2.19079-1.49741,2.17355-3.33828,2.051,4.08417-10.2094,6.04845-21.04259,9.17911-31.53628,2.56711-8.6044,4.91257-17.28848,6.97767-26.02671A68.98819,68.98819,0,0,0,285.57249-151.414q-18.99028-.0054-37.9807-.003c-1.77105-.00116-3.74058.50671-4.78-1.64951-1.18847-16.27352-2.34924-32.54643-3.59936-48.81253a7.76619,7.76619,0,0,1,1.25158-5.586,72.04938,72.04938,0,0,0,13.50715-41.03042c.41756-26.27374-13.25986-44.93063-40.81439-48.04325-5.42412-.61273-10.58533-1.30007-15.30835-4.7667-4.37967-3.21458-9.66514-5.13632-14.97947-6.57969-14.58138-3.96029-27.4083-1.36581-37.364,10.66226-9.2012,11.11659-7.39962,23.11343-2.2093,35.2075a28.08229,28.08229,0,0,0,3.07524,5.65921c1.96983,2.65956,1.84966,5.353,1.3762,8.45113-2.919,19.10268-3.15129,38.15162,2.51659,56.85774,2.5792,8.51244,6.88094,15.53431,15.90241,19.216,3.53021,1.44071,8.84332-.444,10.38991,3.55409,1.42332,3.67944.63739,8.21536.813,12.37447.06322,1.49671.09234,2.99491.137,4.49241-16.66259.03539-33.3591-.59889-49.98062.24554-34.57363,1.7564-61.47015,17.66681-80.99749,46.15451C39.9584-95.42634,35.92971-84.68518,32.41951-73.716Z" transform="translate(643.52384 340.51615)"/><path class="cls-4" d="M177.506-151.4103c-.04467-1.4975-.07379-2.9957-.137-4.49241-.17558-4.15911.61035-8.695-.813-12.37447-1.54659-3.99812-6.8597-2.11338-10.38991-3.55409-9.02147-3.68167-13.32321-10.70354-15.90241-19.216-5.66788-18.70612-5.4356-37.75506-2.51659-56.85774.47346-3.09816.59363-5.79157-1.3762-8.45113a28.08229,28.08229,0,0,1-3.07524-5.65921c-5.19032-12.09407-6.9919-24.09091,2.2093-35.2075,9.9557-12.02807,22.78262-14.62255,37.364-10.66226,5.31433,1.44337,10.5998,3.36511,14.97947,6.57969,4.723,3.46663,9.88423,4.154,15.30835,4.7667,27.55453,3.11262,41.232,21.76951,40.81439,48.04325A72.04938,72.04938,0,0,1,240.464-207.465a7.76619,7.76619,0,0,0-1.25158,5.586c1.25012,16.2661,2.41089,32.539,3.59936,48.81253-.2767,1.2309-.89163,1.97427-2.28736,1.59941-1.21386-16.81784-2.42785-33.637-3.6715-50.867-13.18137,11.10323-21.81183,12.46052-37.21118,6.52343a76.03227,76.03227,0,0,1-18.67226-10.40829c-2.76662-2.09544-6.81125-3.7362-7.47964-6.876-.42506-1.997,3.0119-4.74918,4.5624-7.25828a28.42142,28.42142,0,0,0,2.38-4.91059c1.98728-5.279.82359-10.63-2.84571-13.68-4.11085-3.41706-8.33416-2.1067-11.95574.44-3.4524,2.42763-5.36736,1.51593-7.55311-1.45378-2.27443-3.09026-4.89427-5.92631-7.89073-9.50341a145.6402,145.6402,0,0,0-2.18141,25.15431c.12578,12.189,1.13733,24.2834,5.64077,35.80225,3.0692,7.85039,8.07113,13.53977,16.60888,15.77853,4.80206,1.25919,6.44862.38254,6.27584-4.41515-.16191-4.49473-.45436-8.98564-.55139-13.48122-.02863-1.32684-.85221-3.04769,2.06643-4.28162.632,14.71029,1.24786,29.0424,1.86364,43.37451Z" transform="translate(643.52384 340.51615)"/><path class="cls-5" d="M-.81253,36.87221a16.831,16.831,0,0,1-5.70778-7.97842c-8.87-27.45974-8.79084-54.421,6.51641-79.70065,6.80332-11.2355,16.66826-19.4043,30.76263-20.42362.25974,4.6255-2.97967,8.38315-3.20072,12.89139-5.66158.53383-11.26537,1.25324-16.01006,4.89,5.49375-1.25575,11.36272-.80619,16.41072-3.86945,14.21044-2.31937,28.19465-.48717,42.0977,2.4121a22.34848,22.34848,0,0,1,6.5155,2.42291c3.29739,1.90137,6.74357,3.90164,6.69871,8.529-.04382,4.524-3.58569,5.81088-7.3696,7.45521,2.80434,1.8239,5.58109,2.91045,7.75616,4.94791,3.38234,3.16822,4.7802,6.89627,3.08214,11.23562-1.76716,4.51566-5.825,4.25736-9.7537,3.95794-11.76776-.89691-23.537-1.77374-36.05663-2.71486,3.372,2.908,6.89882,3.25723,10.36807,3.54277,3.98683.32814,7.94076.62446,11.7608,1.99035A10.99934,10.99934,0,0,1,69.74469-7.9288c2.87391,6.03421-.20884,11.07122-6.75455,10.58673C54.20272,2.00757,45.44771.92185,36.67774.0333c-1.26867-.12858-2.54283-.75715-4.16736.16587,2.71707,2.59076,6.15281,3.34786,9.325,4.574,4.64692,1.79614,9.48834,3.21189,12.94708,7.1561,2.88807,3.29348,3.88388,7.08255,2.08841,11.09425-1.826,4.07987-5.70754,4.474-9.423,3.671C29.802,22.88109,13.79424,26.4631-.81253,36.87221ZM40.987-39.82254c.31949.28124.65149.83454,1.03115.86944,8.61782.79274,17.27482,1.21968,25.79756,2.86975.93393.18082,1.77179-.00681,1.7594-1.09918-.017-1.4882-1.36491-1.15972-2.243-1.32092a170.1423,170.1423,0,0,0-24.33226-2.49666A1.73013,1.73013,0,0,0,40.987-39.82254Z" transform="translate(643.52384 340.51615)"/><path class="cls-5" d="M179.9097-151.5294c-.61578-14.33211-1.23162-28.66422-1.86364-43.37451-2.91864,1.23393-2.09506,2.95478-2.06643,4.28162.097,4.49558.38948,8.98649.55139,13.48122.17278,4.79769-1.47378,5.67434-6.27584,4.41515-8.53775-2.23876-13.53968-7.92814-16.60888-15.77853-4.50344-11.51885-5.515-23.6133-5.64077-35.80225a145.6402,145.6402,0,0,1,2.18141-25.15431c2.99646,3.5771,5.6163,6.41315,7.89073,9.50341,2.18575,2.96971,4.10071,3.88141,7.55311,1.45378,3.62158-2.54667,7.84489-3.857,11.95574-.44,3.6693,3.05,4.833,8.40094,2.84571,13.68a28.42142,28.42142,0,0,1-2.38,4.91059c-1.5505,2.5091-4.98746,5.26128-4.5624,7.25828.66839,3.13981,4.713,4.78057,7.47964,6.876a76.03227,76.03227,0,0,0,18.67226,10.40829c15.39935,5.93709,24.02981,4.5798,37.21118-6.52343,1.24365,17.23,2.45764,34.04914,3.6715,50.867Q210.217-151.49958,179.9097-151.5294Zm-2.73134-78.2331c-2.81667-3.67816-5.337-2.87509-7.78326-1.815-2.99389,1.29739-4.16717,4.06915-5.12319,6.917a1.417,1.417,0,0,0,.43477,1.27725,1.04761,1.04761,0,0,0,1.60061-.51C167.9655-228.669,171.04935-231.26562,177.17836-229.7625Z" transform="translate(643.52384 340.51615)"/><path class="cls-4" d="M125.54661-54.554c-2.04557,6.13427-3.98189,12.12893-6.04027,18.0814Q105.84076,3.04613,92.05159,42.5218c-.82016,2.335-1.909,7.11069-3.28555,6.31118-2.62131-1.52243.1718-4.78057.99837-7.19484q15.3162-44.73687,30.77038-89.42659c.81151-2.35389,1.64907-4.69984,2.53545-7.02629.295-.77422.76567-1.54684,1.82647-1.21751C125.74806-55.76792,125.569-55.02922,125.54661-54.554Z" transform="translate(643.52384 340.51615)"/><path class="cls-4" d="M27.95867-57.31857c-5.048,3.06326-10.917,2.6137-16.41072,3.86945,4.74469-3.63673,10.34848-4.35614,16.01006-4.89Q27.75969-57.8293,27.95867-57.31857Z" transform="translate(643.52384 340.51615)"/><path class="cls-5" d="M80.36475-252.8583c.12731,46.08989-38.06,85.06747-83.50156,85.22956-47.77723.17041-86.64065-37.7108-86.76081-84.56824C-90.0187-299.41-51.85224-338.0381-4.99709-338.12436A85.13989,85.13989,0,0,1,80.36475-252.8583ZM-44.01973-213.62139c2.2093.714,2.98107-1.15028,4.05164-2.213,10.51027-10.433,21.1158-20.77709,31.35986-31.4668,3.03215-3.16407,4.95639-3.23361,7.77672-.13984,3.693,4.05112,7.62433,7.88749,11.50266,11.7667Q21.24623-225.097,31.888-214.58649c.77.76216,1.64924,2.15293,2.79866.72921.76768-.95092-.36507-1.7922-.97225-2.51774-.42183-.50393-1.01039-.86386-1.48257-1.33057C21.49-228.32344,11.28247-239.4793-.00884-249.54721c-2.35132-2.09657-2.20986-4.14819.31186-6.60841,11.07386-10.80426,21.9251-21.83688,32.828-32.8157.84489-.85076,2.73971-1.7616,1.42631-3.13474-1.46884-1.53567-2.26521.64324-3.03509,1.39821C20.4877-279.88759,9.38088-269.13337-1.35788-258.02428c-2.94843,3.05013-4.36936,2.45735-6.93032-.15629-10.82285-11.046-21.83307-21.90857-32.795-32.81787-.733-.72941-1.33586-2.54278-2.63333-1.42259-1.53354,1.324.28366,2.26108,1.02131,3.21811a15.68678,15.68678,0,0,0,1.40092,1.42088C-30.8245-277.30885-20.45143-266.73585-9.82124-256.428c2.89014,2.80246,2.67556,4.42295-.08386,7.12246-10.69164,10.45922-21.16169,21.14518-31.68038,31.78015C-42.64646-216.45271-44.501-215.76921-44.01973-213.62139Z" transform="translate(643.52384 340.51615)"/><path class="cls-5" d="M-219.27512,100.91717c.88791-7.22328,1.84655-14.43906,2.61551-21.675.20048-1.88633,1.3131-2.52582,2.75619-2.98023,17.63587-5.55372,26.82016-22.72524,23.94088-43.13617a59.54023,59.54023,0,0,0-3.04705-12.58886c-2.50285-6.70113-6.16379-12.9367-4.78527-20.76879.72679-4.12954-1.64784-8.30986-3.53943-12.448C-138.29594,1.915-93.26837,38.36382-70.81164,99.17382-47.953,161.072-59.331,218.61537-99.38358,272.08473c-2.9577-8.5348-5.47893-15.85866-8.03274-23.171-11.82916-33.87118-23.74736-67.71179-38.33893-100.52582-5.57346-12.53375-11.64663-24.78427-24.23688-32.03966-9.42926-5.43386-19.25363-9.63517-30.43393-9.44617A127.59233,127.59233,0,0,1-219.27512,100.91717Z" transform="translate(643.52384 340.51615)"/><path class="cls-5" d="M-258.19285,242.16733c-.37631,2.25847-2.57683,1.75635-3.846,2.15467-5.54508,1.74-11.26873,2.90687-16.82688,4.61031-3.5199,1.07882-4.52919.4165-4.40414-3.44812.927-28.6428,1.66059-57.29207,2.3703-85.9414.04119-1.66572,1.07624-4.78051-.8159-4.79126-2.82118-.01605-1.33281,3.1566-1.38316,4.80517-.90042,29.47618-1.54561,58.96054-2.55094,88.43275-.15617,4.57937,1.10126,5.00033,4.97946,3.87427,10.36356-3.00916,20.82451-5.68139,31.208-8.62446,2.94672-.83527,4.53426-1.16048,5.28376,2.91616a197.61159,197.61159,0,0,0,17.79192,52.67925c.87076,1.74432,1.81231,3.01252-.79661,4.23036-23.98464,11.19544-48.34174,21.28526-74.72226,25.39357-33.79045,5.26244-50.53912-11.23926-56.40011-42.00041-3.01843-15.84206-2.53746-31.81148-1.21417-47.78511.1649-1.99057.26123-3.98827.32806-5.98469a2.07605,2.07605,0,0,0-.95642-1.82024c-3.34633,17.1249-3.12058,34.36892-1.3401,52.25854-4.20342-2.85385-6.37153-6.90143-9.59889-9.88679-.95605-.88433-.41753-2.17462-.21327-3.32735,4.49429-25.36451,8.86377-50.77791,16.21824-75.50159,7.79521-26.2054,20.09448-49.63354,41.026-68.303A60.96273,60.96273,0,0,1-285.534,111.47219c2.34387,3.63523,5.90814,6.20256,8.30169,9.8564,6.90438,10.53958,11.46909,22.07805,15.06766,34.04529,4.85728,16.15354,8.15376,32.6077,7.23588,49.5525C-255.60248,217.36243-257.0759,229.75527-258.19285,242.16733Z" transform="translate(643.52384 340.51615)"/><path class="cls-5" d="M-373.69755,269.40262a120.74971,120.74971,0,0,1-12.93485-18.13928c-15.75576-25.98009-23.89774-54.28-25.56011-84.55775-.19279-3.51134.71929-4.61171,4.27465-4.54421,10.49321.19955,20.993.09147,31.48973.026,1.56728-.00976,3.30822.60886,4.85963-.811-1.12211-2.21093-3.14814-1.406-4.75366-1.41661-10.49665-.06957-20.9992-.227-31.48838.06127-3.87579.10643-4.675-1.06851-4.48449-4.74756,2.79393-53.95623,24.56554-98.41454,66.36393-132.82417A166.38446,166.38446,0,0,1-299.03092-4.61106c.87717-.33387,1.79431-.56272,3.11992-.97252-8.60354,24.65185-12.60765,49.66693-15.5543,74.85343-2.06559,17.65534-3.52823,35.38477-4.98411,53.10382-.22175,2.69883-1.41858,4.14071-3.152,5.74131-16.8219,15.53229-27.38059,35.02367-34.69484,56.33737-9.20055,26.8103-13.69054,54.75245-18.856,82.51513C-373.263,267.56224-373.41538,268.14925-373.69755,269.40262Z" transform="translate(643.52384 340.51615)"/><path class="cls-5" d="M-221.57677,302.03594c-8.51755-14.01224-13.72062-29.34192-17.83995-45.089-1.46207-5.5893-3.07915-11.16462-3.2457-17.00876,11.08388-2.90444,22.1439-5.90377,33.26732-8.64612,2.85633-.70419,2.81587-1.88218,1.92375-4.148-1.95671-4.96964-3.4524-10.066-3.08409-15.52222.37654-5.57777,4.49935-8.3408,9.996-6.96868,4.24328,1.05936,6.70421,4.11642,9.08928,7.31635,2.13124,2.85933,4.10223,5.8381,6.32954,9.03009,1.27611-2.07881.68188-3.71969.47932-5.24773-1.24432-9.38911-2.60892-18.7623-3.90169-28.14519q-5.40874-39.25363-10.79253-78.51087c20.90293,2.12873,37.2655,11.24377,46.80956,30.6582,13.36708,27.19135,23.48408,55.69708,33.81816,84.111,2.65127,7.28968,5.18263,14.623,7.94949,22.44635-2.57529.1475-4.01905-.43219-4.657-2.413-2.0491-6.36159-7.43514-7.58718-13-8.24072a34.67473,34.67473,0,0,0-8.97527.04712c-16.18845,2.37374-30.65284-1.61056-43.63147-11.38908-.68829-.51854-1.31493-.99669-2.31288-.49358-.9172,1.40922.34476,1.956,1.20563,2.62182,12.28047,9.49835,26.20573,13.29518,41.5911,11.86057,5.30927-.495,10.60425-1.14358,15.84083.41211,3.47944,1.0336,6.58257,2.594,7.06922,6.71755.20389,1.72748,1.47628,1.927,2.63162,2.55872,5.24726,2.86917,5.692,4.88743,2.21163,10.715-3.62915-7.02763-10.20067-7.636-16.80833-7.78247a103.193,103.193,0,0,1-22.73849-2.80008c-5.32123-1.32232-10.44619-3.039-15.16109-6.90417-.52119,3.9799,2.28333,4.60542,4.2661,5.54426,8.86255,4.19685,18.35979,5.734,28.05771,6.25424a109.07539,109.07539,0,0,1,11.943.80329c3.748.6149,6.15079,3.06079,8.61312,5.48616,1.79413,1.76739-.34689,2.6942-1.21264,3.40834-3.31283,2.733-7.40988,3.64181-11.54617,4.25666-9.6259,1.43082-19.274,1.02561-28.91.13352a12.07542,12.07542,0,0,0-7.67084,1.3615c-9.72611,5.72-19.52276,11.32061-29.31655,16.9248-1.33488.7638-2.70346,1.37712-2.6113,3.237Q-208.73867,295.33377-221.57677,302.03594Zm68.45582-57.99229c4.31914,4.37414,29.06749,5.40122,34.54245,1.50846C-130.4112,244.86434-141.86875,246.92783-153.12095,244.04365Z" transform="translate(643.52384 340.51615)"/><path class="cls-6" d="M-199.35549,109.09582q5.39464,39.25565,10.79253,78.51087c1.29277,9.38289,2.65737,18.75608,3.90169,28.14519.20256,1.528.79679,3.16892-.47932,5.24773-2.22731-3.192-4.1983-6.17076-6.32954-9.03009-2.38507-3.19993-4.846-6.257-9.08928-7.31635-5.49668-1.37212-9.61949,1.39091-9.996,6.96868-.36831,5.4562,1.12738,10.55258,3.08409,15.52222.89212,2.26579.93258,3.44378-1.92375,4.148-11.12342,2.74235-22.18344,5.74168-33.26732,8.64612-3.85031-.35207-7.40206.98771-10.99489,2.01076-1.54727.44067-2.99945,1.32427-4.55111.18283,1.13252-12.37648,2.60594-24.76932,3.27963-37.20537.91788-16.9448-2.3786-33.399-7.23588-49.5525-3.59857-11.96724-8.16328-23.50571-15.06766-34.04529-2.39355-3.65384-5.95782-6.22117-8.30169-9.8564.517-8.5002,6.707-15.21373,13.82944-15.7936.94589-.077,2.37652-.78993,2.176,1.24378q.09319,2.57841.18407,5.14606c-3.51594,3.74441,1.4985,3.74831,2.4583,4.38677,17.81243,11.84843,35.79641,23.43925,53.76837,35.0468,1.28917.83265,2.5781,2.223,5.09182.64548-5.42388-3.85327-10.56129-7.503-15.6987-11.15272q1.61437-14.43792,3.22892-28.87592.61032-.60471,1.2207-1.20558a127.146,127.146,0,0,0,18.84906,5.98878A2.45585,2.45585,0,0,0-199.35549,109.09582Z" transform="translate(643.52384 340.51615)"/><path class="cls-5" d="M410.1563,154.85357c-.08361-6.92993,1.52828-13.55289,3.80783-20.01511,3.16349-8.96779,7.80986-17.22334,12.48345-25.465,1.08009-1.90482,1.85-2.74491,4.08124-1.19947,16.35061,11.32579,33.54329,20.91238,53.379,24.69993,2.51366.48,2.5377,2.54878,2.973,4.0969a43.231,43.231,0,0,1,.76847,19.70619c-.17759.96807-.79313,2.02438.00794,2.82755.6574.65914,1.55184.17813,2.2422-.29879,4.35514-3.00812,8.49375-3.533,12.3703.85553,4.14069,4.68781,5.22407,11.02823,2.65463,16.17423-3.80966,7.62984-13.52118,11.44192-21.7818,8.4562-2.131-.77022-5.46355-1.6753-5.11874-3.86286a8.16742,8.16742,0,0,1,5.12521-6.10723c3.103-1.16286,6.134-2.51582,9.20962-3.75362.88784-.35737,1.52633-.97423,1.05006-1.84251-.47627-.86859-1.409-.6334-2.17849-.17057a17.80323,17.80323,0,0,1-2.12209,1.29645c-3.00958,1.27081-6.07494,3.88781-6.23312-2.8-.14049-5.93684-6.8439-9.4535-13.64972-8.10683-6.74539,1.33459-12.06943,5.50624-17.43545,9.335-7.709,5.50069-15.20033,11.33574-22.4862,17.38719-3.26785,2.71409-5.28132,1.85527-7.83684-.71536C413.03954,176.87457,410.24235,166.37892,410.1563,154.85357Z" transform="translate(643.52384 340.51615)"/><path class="cls-5" d="M-245.28458,23.48165c-.44454-3.45715-.47975-7.03441-1.44907-10.33765-.9634-3.283-.666-3.8996,2.91834-3.50805,9.44092,1.03147,18.92968,1.3684,28.2234-1.33862a45.42479,45.42479,0,0,0,5.663-1.91849c6.24282-2.75553,6.17929-2.77207,9.58678,3.48864,6.347,11.66138,9.73147,23.89756,8.06984,37.32993-2.63876,21.331-27.4736,36.71386-48.17672,23.29022-5.344-3.465-10.33585-7.33746-14.01558-12.59013-1.87383-2.67492-3.75389-3.27243-6.974-2.24627-9.285,2.95893-17.23748.2-21.28845-6.90381-3.58416-6.28512-2.06211-12.49689,4.14715-16.9254,5.11318-3.64676,11.34112-2.611,15.90931,2.73027,2.48442,2.90486,4.99735,5.80392,7.23607,8.89492,2.10348,2.90419,3.32247,2.298,4.89817-.46734A40.95766,40.95766,0,0,0-245.28458,23.48165Zm-28.495,21.26457c5.5142.92174,10.45369,1.57613,14.15936,5.17847.61621.599,1.29345.12174,1.66609-.35323.18834-.24007.00763-.91308-.19255-1.29187C-259.95073,44.86662-269.20362,42.38748-273.77956,44.74622Z" transform="translate(643.52384 340.51615)"/><path class="cls-6" d="M-221.57677,302.03594q12.83812-6.70236,25.67631-13.40509c5.67745-.93761,9.8647-4.884,14.80169-7.316,3.30709-1.62922,5.9552-4.67188,10.0127-4.70148,1.6692,5.16309,3.54474,10.27027,4.96116,15.50177,2.35846,8.71172,6.0255,17.09066,6.79666,26.21321-7.30485,5.1634-15.86964,7.4854-24.18049,10.102a175.06926,175.06926,0,0,1-79.49026,6.074c-3.38582-.5078-3.88583-.78022-4.56673-2.92628-.75889-3.01032-.08556-5.984.17992-8.966,13.95717-5.46084,27.96525-10.79486,41.37908-17.5486A15.179,15.179,0,0,0-221.57677,302.03594Z" transform="translate(643.52384 340.51615)"/><path class="cls-5" d="M-220.49582,102.11884q-1.61455,14.43793-3.22757,28.87562c-2.42407-.3456-4.0735-2.11207-5.99468-3.346q-19.84247-12.74435-39.62646-25.58-.09145-2.57034-.18407-5.14606c2.7095-7.57382,2.64481-15.62633,4.05983-23.42161.7108-3.91595,1.31834-7.86663,1.65205-11.82865.18345-2.17816.996-3.1793,3.08012-3.7405,2.1163-.56981,3.21085.1298,4.58675,1.72833,9.29988,10.80469,19.99171,19.07653,35.33924,18.117,2.80336-.17533,1.77838,1.674,1.64235,2.92848-.6455,5.94972-1.3676,11.89126-2.07718,17.834C-221.39911,99.82675-221.99585,101.18642-220.49582,102.11884Z" transform="translate(643.52384 340.51615)"/><path class="cls-5" d="M-159.32825,318.32831c-.77116-9.12255-4.4382-17.50149-6.79666-26.21321-1.41642-5.2315-3.292-10.33868-4.96116-15.50177,4.03053-4.20613,8.479-7.64241,14.74127-7.14181,9.62511.76942,19.22311,1.10311,28.85871-.04858,8.926-1.06687,15.81453-4.75324,19.49225-15.0968,2.3974,7.083,4.37724,12.86433,6.29684,18.66551.3539,1.06949-.35855,1.88889-1.0334,2.651-15.78451,17.82676-33.98721,32.50785-55.61425,42.727C-158.60732,318.49388-158.99754,318.34809-159.32825,318.32831Z" transform="translate(643.52384 340.51615)"/><path class="cls-5" d="M-267.38581,322.61207c-.26548,2.98194-.93881,5.95564-.17992,8.966-.36525,1.01841-.972,1.85575-2.15456,1.58534-5.87842-1.3438-11.85766-2.34006-18.47453-4.89451C-280.60466,326.2055-273.99524,324.40881-267.38581,322.61207Z" transform="translate(643.52384 340.51615)"/><path class="cls-5" d="M-111.07939,246.69446q.15049.19554.30087.39112c-.13262.09722-.27823.28353-.39425.26663-.11693-.017-.20457-.23581-.30508-.36616Q-111.27865,246.84022-111.07939,246.69446Z" transform="translate(643.52384 340.51615)"/><path class="cls-5" d="M637.251,56.064c0-12.16124-.022-23.2215.007-34.28159.02307-8.82651-.09008-17.66058.2551-26.47574.15489-3.95339-1.28649-4.57028-4.87425-4.55023-27.81585.15552-55.63378.23181-83.44926.051C508.27018-9.45852,477.2696-46.47382,483.97-86.8202a66.96655,66.96655,0,0,1,66.43368-56.21733q90.44586-.00585,180.89183.00473a66.95786,66.95786,0,0,1,66.89128,60.70107c3.15349,34.73884-20.13024,65.46072-54.52244,72.0929-9.26479,1.78661-18.59244.99125-27.88847.98445A13.87835,13.87835,0,0,0,705.611-5.28723c-21.66975,19.70357-43.514,39.21528-65.3066,58.784C639.60475,54.125,638.86557,54.70916,637.251,56.064Z" transform="translate(643.52384 340.51615)"/><path class="cls-5" d="M-334.36681-42.85669c-23.62783-21.2494-46.18721-41.46877-68.62956-61.81718a11.53409,11.53409,0,0,0-8.42537-3.25915c-12.44415.00494-24.89919.77836-37.12675-3.06863-28.11269-8.84491-46.97217-35.00158-46.7055-65.45327.24857-28.38725,20.36594-54.78772,47.79453-62.674a74.00138,74.00138,0,0,1,20.65256-2.90895q90.23722.08514,180.47464.02917c32.8077-.002,61.43017,25.83833,65.88156,58.1509,4.6366,33.6582-18.242,69.00843-56.0345,75.17973a72.43721,72.43721,0,0,1-11.4401.79014c-27.16266.07247-54.32593.11855-81.488-.01974-3.80487-.01937-5.12691.806-5.06945,4.92518.251,17.99324.11287,35.992.11589,53.9887C-334.36656-47.39071-334.36681-45.78767-334.36681-42.85669Z" transform="translate(643.52384 340.51615)"/><path class="cls-4" d="M461.68234,427.66216c-13.68755-7.22634-26.4643-15.83053-39.87076-24.71544C425.28132,402.28861,458.496,422.87829,461.68234,427.66216Z" transform="translate(643.52384 340.51615)"/><path class="cls-4" d="M445.99646,450.70211c-12.34113-6.55779-23.36758-15.15045-34.26037-23.94962C424.26079,433.06117,434.9312,442.12038,445.99646,450.70211Z" transform="translate(643.52384 340.51615)"/><path class="cls-4" d="M430.4623,470.43467c-11.24884-6.02429-21.06044-14.0812-31.20783-22.21866C402.39452,447.92083,427.56429,465.71836,430.4623,470.43467Z" transform="translate(643.52384 340.51615)"/><path class="cls-4" d="M40.987-39.82254a1.73013,1.73013,0,0,1,2.0128-1.17757A170.1423,170.1423,0,0,1,67.332-38.50345c.87814.1612,2.22609-.16728,2.243,1.32092.01239,1.09237-.82547,1.28-1.7594,1.09918C59.293-37.73342,50.636-38.16036,42.01813-38.9531,41.63847-38.988,41.30647-39.5413,40.987-39.82254Z" transform="translate(643.52384 340.51615)"/><path class="cls-4" d="M177.17836-229.7625c-6.129-1.50312-9.21286,1.0935-10.87107,5.86925a1.04761,1.04761,0,0,1-1.60061.51,1.417,1.417,0,0,1-.43477-1.27725c.956-2.84781,2.1293-5.61957,5.12319-6.917C171.84132-232.63759,174.36169-233.44066,177.17836-229.7625Z" transform="translate(643.52384 340.51615)"/><path class="cls-2" d="M-44.01973-213.62139c-.48122-2.14782,1.37327-2.83132,2.43425-3.904,10.51869-10.635,20.98874-21.32093,31.68038-31.78015,2.75942-2.69951,2.974-4.32.08386-7.12246C-20.45143-266.73585-30.8245-277.30885-41.29431-287.782a15.68678,15.68678,0,0,1-1.40092-1.42088c-.73765-.957-2.55485-1.89414-1.02131-3.21811,1.29747-1.12019,1.90037.69318,2.63333,1.42259,10.96194,10.9093,21.97216,21.77191,32.795,32.81787,2.561,2.61364,3.98189,3.20642,6.93032.15629C9.38088-269.13337,20.4877-279.88759,31.5222-290.70785c.76988-.755,1.56625-2.93388,3.03509-1.39821,1.3134,1.37314-.58142,2.284-1.42631,3.13474C22.22812-277.9925,11.37688-266.95988.303-256.15562c-2.52172,2.46022-2.66318,4.51184-.31186,6.60841C11.28247-239.4793,21.49-228.32344,32.23185-217.70559c.47218.46671,1.06074.82664,1.48257,1.33057.60718.72554,1.73993,1.56682.97225,2.51774-1.14942,1.42372-2.02866.03295-2.79866-.72921Q21.25827-225.10894,10.67115-235.6743c-3.87833-3.87921-7.80968-7.71558-11.50266-11.7667-2.82033-3.09377-4.74457-3.02423-7.77672.13984-10.24406,10.68971-20.84959,21.0338-31.35986,31.4668C-41.03866-214.77167-41.81043-212.90741-44.01973-213.62139Z" transform="translate(643.52384 340.51615)"/><path class="cls-4" d="M-153.12095,244.04365c11.2522,2.88418,22.70975.82069,34.54245,1.50846C-124.05346,249.44487-148.80181,248.41779-153.12095,244.04365Z" transform="translate(643.52384 340.51615)"/><path class="cls-4" d="M-269.34447,102.06843q19.80695,12.79974,39.6264,25.58c1.92118,1.234,3.57061,3.00043,5.99474,3.346,5.136,3.65006,10.27341,7.29975,15.69729,11.153-2.51372,1.57748-3.80265.18717-5.09182-.64548-17.972-11.60755-35.95594-23.19837-53.76837-35.0468C-267.846,105.81674-272.86047,105.81284-269.34447,102.06843Z" transform="translate(643.52384 340.51615)"/><path class="cls-4" d="M-273.77956,44.74622c4.57594-2.35874,13.82883.1204,15.6329,3.53337.20018.37879.38089,1.0518.19255,1.29187-.37264.475-1.04988.9522-1.66609.35323C-263.32587,46.32235-268.26536,45.668-273.77956,44.74622Z" transform="translate(643.52384 340.51615)"/><circle class="cls-7" cx="18.19388" cy="682.77065" r="18.19388"/><circle class="cls-7" cx="18.19388" cy="791.77065" r="18.19388"/><circle class="cls-7" cx="18.19388" cy="737.77065" r="18.19388"/><circle class="cls-7" cx="553.19308" cy="743.84408" r="18.19388"/><circle class="cls-7" cx="662.19308" cy="743.84408" r="18.19388"/><circle class="cls-7" cx="608.19308" cy="743.84408" r="18.19388"/><circle class="cls-7" cx="1185.28249" cy="89.03288" r="18.19388"/><circle class="cls-7" cx="1294.28249" cy="89.03288" r="18.19388"/><circle class="cls-7" cx="1240.28249" cy="89.03288" r="18.19388"/></svg>